<mxfile host="Electron" modified="2024-05-02T08:12:15.444Z" agent="Mozilla/5.0 (Windows NT 10.0; Win64; x64) AppleWebKit/537.36 (KHTML, like Gecko) draw.io/22.1.2 Chrome/114.0.5735.289 Electron/25.9.4 Safari/537.36" etag="xAkRsT34cotpO0vWsTdH" version="22.1.2" type="device">
  <diagram name="第 1 页" id="VAjPfp4Nz1TjdgTUCrFC">
    <mxGraphModel dx="2211" dy="1301" grid="0" gridSize="10" guides="1" tooltips="1" connect="1" arrows="1" fold="1" page="1" pageScale="1" pageWidth="2300" pageHeight="2000" math="0" shadow="0">
      <root>
        <mxCell id="0" />
        <mxCell id="1" parent="0" />
        <mxCell id="rALmjC8-9dlUVmQsLGrq-196" value="" style="group" parent="1" vertex="1" connectable="0">
          <mxGeometry x="957" y="192" width="326" height="312" as="geometry" />
        </mxCell>
        <mxCell id="rALmjC8-9dlUVmQsLGrq-1" value="" style="shape=table;startSize=0;container=1;collapsible=0;childLayout=tableLayout;fontStyle=1;fillColor=#CCE5FF;" parent="rALmjC8-9dlUVmQsLGrq-196" vertex="1">
          <mxGeometry width="163" height="156" as="geometry" />
        </mxCell>
        <mxCell id="rALmjC8-9dlUVmQsLGrq-2" value="" style="shape=tableRow;horizontal=0;startSize=0;swimlaneHead=0;swimlaneBody=0;strokeColor=inherit;top=0;left=0;bottom=0;right=0;collapsible=0;dropTarget=0;fillColor=none;points=[[0,0.5],[1,0.5]];portConstraint=eastwest;fontStyle=1" parent="rALmjC8-9dlUVmQsLGrq-1" vertex="1">
          <mxGeometry width="163" height="39" as="geometry" />
        </mxCell>
        <mxCell id="rALmjC8-9dlUVmQsLGrq-3" value="0" style="shape=partialRectangle;html=1;whiteSpace=wrap;connectable=0;strokeColor=inherit;overflow=hidden;fillColor=none;top=0;left=0;bottom=0;right=0;pointerEvents=1;fontStyle=1" parent="rALmjC8-9dlUVmQsLGrq-2" vertex="1">
          <mxGeometry width="41" height="39" as="geometry">
            <mxRectangle width="41" height="39" as="alternateBounds" />
          </mxGeometry>
        </mxCell>
        <mxCell id="rALmjC8-9dlUVmQsLGrq-4" value="1" style="shape=partialRectangle;html=1;whiteSpace=wrap;connectable=0;strokeColor=inherit;overflow=hidden;fillColor=none;top=0;left=0;bottom=0;right=0;pointerEvents=1;fontStyle=1" parent="rALmjC8-9dlUVmQsLGrq-2" vertex="1">
          <mxGeometry x="41" width="41" height="39" as="geometry">
            <mxRectangle width="41" height="39" as="alternateBounds" />
          </mxGeometry>
        </mxCell>
        <mxCell id="rALmjC8-9dlUVmQsLGrq-5" value="2" style="shape=partialRectangle;html=1;whiteSpace=wrap;connectable=0;strokeColor=inherit;overflow=hidden;fillColor=none;top=0;left=0;bottom=0;right=0;pointerEvents=1;fontStyle=1" parent="rALmjC8-9dlUVmQsLGrq-2" vertex="1">
          <mxGeometry x="82" width="40" height="39" as="geometry">
            <mxRectangle width="40" height="39" as="alternateBounds" />
          </mxGeometry>
        </mxCell>
        <mxCell id="rALmjC8-9dlUVmQsLGrq-6" value="3" style="shape=partialRectangle;html=1;whiteSpace=wrap;connectable=0;strokeColor=inherit;overflow=hidden;fillColor=none;top=0;left=0;bottom=0;right=0;pointerEvents=1;fontStyle=1" parent="rALmjC8-9dlUVmQsLGrq-2" vertex="1">
          <mxGeometry x="122" width="41" height="39" as="geometry">
            <mxRectangle width="41" height="39" as="alternateBounds" />
          </mxGeometry>
        </mxCell>
        <mxCell id="rALmjC8-9dlUVmQsLGrq-7" value="" style="shape=tableRow;horizontal=0;startSize=0;swimlaneHead=0;swimlaneBody=0;strokeColor=inherit;top=0;left=0;bottom=0;right=0;collapsible=0;dropTarget=0;fillColor=none;points=[[0,0.5],[1,0.5]];portConstraint=eastwest;fontStyle=1" parent="rALmjC8-9dlUVmQsLGrq-1" vertex="1">
          <mxGeometry y="39" width="163" height="39" as="geometry" />
        </mxCell>
        <mxCell id="rALmjC8-9dlUVmQsLGrq-8" value="8" style="shape=partialRectangle;html=1;whiteSpace=wrap;connectable=0;strokeColor=inherit;overflow=hidden;fillColor=none;top=0;left=0;bottom=0;right=0;pointerEvents=1;fontStyle=1" parent="rALmjC8-9dlUVmQsLGrq-7" vertex="1">
          <mxGeometry width="41" height="39" as="geometry">
            <mxRectangle width="41" height="39" as="alternateBounds" />
          </mxGeometry>
        </mxCell>
        <mxCell id="rALmjC8-9dlUVmQsLGrq-9" value="&lt;span&gt;9&lt;/span&gt;" style="shape=partialRectangle;html=1;whiteSpace=wrap;connectable=0;strokeColor=inherit;overflow=hidden;fillColor=none;top=0;left=0;bottom=0;right=0;pointerEvents=1;fontStyle=1" parent="rALmjC8-9dlUVmQsLGrq-7" vertex="1">
          <mxGeometry x="41" width="41" height="39" as="geometry">
            <mxRectangle width="41" height="39" as="alternateBounds" />
          </mxGeometry>
        </mxCell>
        <mxCell id="rALmjC8-9dlUVmQsLGrq-10" value="10" style="shape=partialRectangle;html=1;whiteSpace=wrap;connectable=0;strokeColor=inherit;overflow=hidden;fillColor=none;top=0;left=0;bottom=0;right=0;pointerEvents=1;fontStyle=1" parent="rALmjC8-9dlUVmQsLGrq-7" vertex="1">
          <mxGeometry x="82" width="40" height="39" as="geometry">
            <mxRectangle width="40" height="39" as="alternateBounds" />
          </mxGeometry>
        </mxCell>
        <mxCell id="rALmjC8-9dlUVmQsLGrq-11" value="11" style="shape=partialRectangle;html=1;whiteSpace=wrap;connectable=0;strokeColor=inherit;overflow=hidden;fillColor=none;top=0;left=0;bottom=0;right=0;pointerEvents=1;fontStyle=1" parent="rALmjC8-9dlUVmQsLGrq-7" vertex="1">
          <mxGeometry x="122" width="41" height="39" as="geometry">
            <mxRectangle width="41" height="39" as="alternateBounds" />
          </mxGeometry>
        </mxCell>
        <mxCell id="rALmjC8-9dlUVmQsLGrq-12" value="" style="shape=tableRow;horizontal=0;startSize=0;swimlaneHead=0;swimlaneBody=0;strokeColor=inherit;top=0;left=0;bottom=0;right=0;collapsible=0;dropTarget=0;fillColor=none;points=[[0,0.5],[1,0.5]];portConstraint=eastwest;fontStyle=1" parent="rALmjC8-9dlUVmQsLGrq-1" vertex="1">
          <mxGeometry y="78" width="163" height="39" as="geometry" />
        </mxCell>
        <mxCell id="rALmjC8-9dlUVmQsLGrq-13" value="16" style="shape=partialRectangle;html=1;whiteSpace=wrap;connectable=0;strokeColor=inherit;overflow=hidden;fillColor=none;top=0;left=0;bottom=0;right=0;pointerEvents=1;fontStyle=1" parent="rALmjC8-9dlUVmQsLGrq-12" vertex="1">
          <mxGeometry width="41" height="39" as="geometry">
            <mxRectangle width="41" height="39" as="alternateBounds" />
          </mxGeometry>
        </mxCell>
        <mxCell id="rALmjC8-9dlUVmQsLGrq-14" value="17" style="shape=partialRectangle;html=1;whiteSpace=wrap;connectable=0;strokeColor=inherit;overflow=hidden;fillColor=none;top=0;left=0;bottom=0;right=0;pointerEvents=1;fontStyle=1" parent="rALmjC8-9dlUVmQsLGrq-12" vertex="1">
          <mxGeometry x="41" width="41" height="39" as="geometry">
            <mxRectangle width="41" height="39" as="alternateBounds" />
          </mxGeometry>
        </mxCell>
        <mxCell id="rALmjC8-9dlUVmQsLGrq-15" value="..." style="shape=partialRectangle;html=1;whiteSpace=wrap;connectable=0;strokeColor=inherit;overflow=hidden;fillColor=none;top=0;left=0;bottom=0;right=0;pointerEvents=1;fontStyle=1" parent="rALmjC8-9dlUVmQsLGrq-12" vertex="1">
          <mxGeometry x="82" width="40" height="39" as="geometry">
            <mxRectangle width="40" height="39" as="alternateBounds" />
          </mxGeometry>
        </mxCell>
        <mxCell id="rALmjC8-9dlUVmQsLGrq-16" value="" style="shape=partialRectangle;html=1;whiteSpace=wrap;connectable=0;strokeColor=inherit;overflow=hidden;fillColor=none;top=0;left=0;bottom=0;right=0;pointerEvents=1;fontStyle=1" parent="rALmjC8-9dlUVmQsLGrq-12" vertex="1">
          <mxGeometry x="122" width="41" height="39" as="geometry">
            <mxRectangle width="41" height="39" as="alternateBounds" />
          </mxGeometry>
        </mxCell>
        <mxCell id="rALmjC8-9dlUVmQsLGrq-17" value="" style="shape=tableRow;horizontal=0;startSize=0;swimlaneHead=0;swimlaneBody=0;strokeColor=inherit;top=0;left=0;bottom=0;right=0;collapsible=0;dropTarget=0;fillColor=none;points=[[0,0.5],[1,0.5]];portConstraint=eastwest;fontStyle=1" parent="rALmjC8-9dlUVmQsLGrq-1" vertex="1">
          <mxGeometry y="117" width="163" height="39" as="geometry" />
        </mxCell>
        <mxCell id="rALmjC8-9dlUVmQsLGrq-18" value="" style="shape=partialRectangle;html=1;whiteSpace=wrap;connectable=0;strokeColor=inherit;overflow=hidden;fillColor=none;top=0;left=0;bottom=0;right=0;pointerEvents=1;fontStyle=1" parent="rALmjC8-9dlUVmQsLGrq-17" vertex="1">
          <mxGeometry width="41" height="39" as="geometry">
            <mxRectangle width="41" height="39" as="alternateBounds" />
          </mxGeometry>
        </mxCell>
        <mxCell id="rALmjC8-9dlUVmQsLGrq-19" value="" style="shape=partialRectangle;html=1;whiteSpace=wrap;connectable=0;strokeColor=inherit;overflow=hidden;fillColor=none;top=0;left=0;bottom=0;right=0;pointerEvents=1;fontStyle=1" parent="rALmjC8-9dlUVmQsLGrq-17" vertex="1">
          <mxGeometry x="41" width="41" height="39" as="geometry">
            <mxRectangle width="41" height="39" as="alternateBounds" />
          </mxGeometry>
        </mxCell>
        <mxCell id="rALmjC8-9dlUVmQsLGrq-20" value="" style="shape=partialRectangle;html=1;whiteSpace=wrap;connectable=0;strokeColor=inherit;overflow=hidden;fillColor=none;top=0;left=0;bottom=0;right=0;pointerEvents=1;fontStyle=1" parent="rALmjC8-9dlUVmQsLGrq-17" vertex="1">
          <mxGeometry x="82" width="40" height="39" as="geometry">
            <mxRectangle width="40" height="39" as="alternateBounds" />
          </mxGeometry>
        </mxCell>
        <mxCell id="rALmjC8-9dlUVmQsLGrq-21" value="" style="shape=partialRectangle;html=1;whiteSpace=wrap;connectable=0;strokeColor=inherit;overflow=hidden;fillColor=none;top=0;left=0;bottom=0;right=0;pointerEvents=1;fontStyle=1" parent="rALmjC8-9dlUVmQsLGrq-17" vertex="1">
          <mxGeometry x="122" width="41" height="39" as="geometry">
            <mxRectangle width="41" height="39" as="alternateBounds" />
          </mxGeometry>
        </mxCell>
        <mxCell id="rALmjC8-9dlUVmQsLGrq-49" value="" style="shape=table;startSize=0;container=1;collapsible=0;childLayout=tableLayout;fontStyle=1;fillColor=#CCFFCC;" parent="rALmjC8-9dlUVmQsLGrq-196" vertex="1">
          <mxGeometry x="163" width="163" height="156" as="geometry" />
        </mxCell>
        <mxCell id="rALmjC8-9dlUVmQsLGrq-50" value="" style="shape=tableRow;horizontal=0;startSize=0;swimlaneHead=0;swimlaneBody=0;strokeColor=inherit;top=0;left=0;bottom=0;right=0;collapsible=0;dropTarget=0;fillColor=none;points=[[0,0.5],[1,0.5]];portConstraint=eastwest;fontStyle=1" parent="rALmjC8-9dlUVmQsLGrq-49" vertex="1">
          <mxGeometry width="163" height="39" as="geometry" />
        </mxCell>
        <mxCell id="rALmjC8-9dlUVmQsLGrq-51" value="4" style="shape=partialRectangle;html=1;whiteSpace=wrap;connectable=0;strokeColor=inherit;overflow=hidden;fillColor=none;top=0;left=0;bottom=0;right=0;pointerEvents=1;fontStyle=1" parent="rALmjC8-9dlUVmQsLGrq-50" vertex="1">
          <mxGeometry width="41" height="39" as="geometry">
            <mxRectangle width="41" height="39" as="alternateBounds" />
          </mxGeometry>
        </mxCell>
        <mxCell id="rALmjC8-9dlUVmQsLGrq-52" value="5" style="shape=partialRectangle;html=1;whiteSpace=wrap;connectable=0;strokeColor=inherit;overflow=hidden;fillColor=none;top=0;left=0;bottom=0;right=0;pointerEvents=1;fontStyle=1" parent="rALmjC8-9dlUVmQsLGrq-50" vertex="1">
          <mxGeometry x="41" width="41" height="39" as="geometry">
            <mxRectangle width="41" height="39" as="alternateBounds" />
          </mxGeometry>
        </mxCell>
        <mxCell id="rALmjC8-9dlUVmQsLGrq-53" value="6" style="shape=partialRectangle;html=1;whiteSpace=wrap;connectable=0;strokeColor=inherit;overflow=hidden;fillColor=none;top=0;left=0;bottom=0;right=0;pointerEvents=1;fontStyle=1" parent="rALmjC8-9dlUVmQsLGrq-50" vertex="1">
          <mxGeometry x="82" width="40" height="39" as="geometry">
            <mxRectangle width="40" height="39" as="alternateBounds" />
          </mxGeometry>
        </mxCell>
        <mxCell id="rALmjC8-9dlUVmQsLGrq-54" value="7" style="shape=partialRectangle;html=1;whiteSpace=wrap;connectable=0;strokeColor=inherit;overflow=hidden;fillColor=none;top=0;left=0;bottom=0;right=0;pointerEvents=1;fontStyle=1" parent="rALmjC8-9dlUVmQsLGrq-50" vertex="1">
          <mxGeometry x="122" width="41" height="39" as="geometry">
            <mxRectangle width="41" height="39" as="alternateBounds" />
          </mxGeometry>
        </mxCell>
        <mxCell id="rALmjC8-9dlUVmQsLGrq-55" value="" style="shape=tableRow;horizontal=0;startSize=0;swimlaneHead=0;swimlaneBody=0;strokeColor=inherit;top=0;left=0;bottom=0;right=0;collapsible=0;dropTarget=0;fillColor=none;points=[[0,0.5],[1,0.5]];portConstraint=eastwest;fontStyle=1" parent="rALmjC8-9dlUVmQsLGrq-49" vertex="1">
          <mxGeometry y="39" width="163" height="39" as="geometry" />
        </mxCell>
        <mxCell id="rALmjC8-9dlUVmQsLGrq-56" value="12" style="shape=partialRectangle;html=1;whiteSpace=wrap;connectable=0;strokeColor=inherit;overflow=hidden;fillColor=none;top=0;left=0;bottom=0;right=0;pointerEvents=1;fontStyle=1" parent="rALmjC8-9dlUVmQsLGrq-55" vertex="1">
          <mxGeometry width="41" height="39" as="geometry">
            <mxRectangle width="41" height="39" as="alternateBounds" />
          </mxGeometry>
        </mxCell>
        <mxCell id="rALmjC8-9dlUVmQsLGrq-57" value="13" style="shape=partialRectangle;html=1;whiteSpace=wrap;connectable=0;strokeColor=inherit;overflow=hidden;fillColor=none;top=0;left=0;bottom=0;right=0;pointerEvents=1;fontStyle=1" parent="rALmjC8-9dlUVmQsLGrq-55" vertex="1">
          <mxGeometry x="41" width="41" height="39" as="geometry">
            <mxRectangle width="41" height="39" as="alternateBounds" />
          </mxGeometry>
        </mxCell>
        <mxCell id="rALmjC8-9dlUVmQsLGrq-58" value="14" style="shape=partialRectangle;html=1;whiteSpace=wrap;connectable=0;strokeColor=inherit;overflow=hidden;fillColor=none;top=0;left=0;bottom=0;right=0;pointerEvents=1;fontStyle=1" parent="rALmjC8-9dlUVmQsLGrq-55" vertex="1">
          <mxGeometry x="82" width="40" height="39" as="geometry">
            <mxRectangle width="40" height="39" as="alternateBounds" />
          </mxGeometry>
        </mxCell>
        <mxCell id="rALmjC8-9dlUVmQsLGrq-59" value="15" style="shape=partialRectangle;html=1;whiteSpace=wrap;connectable=0;strokeColor=inherit;overflow=hidden;fillColor=none;top=0;left=0;bottom=0;right=0;pointerEvents=1;fontStyle=1" parent="rALmjC8-9dlUVmQsLGrq-55" vertex="1">
          <mxGeometry x="122" width="41" height="39" as="geometry">
            <mxRectangle width="41" height="39" as="alternateBounds" />
          </mxGeometry>
        </mxCell>
        <mxCell id="rALmjC8-9dlUVmQsLGrq-60" value="" style="shape=tableRow;horizontal=0;startSize=0;swimlaneHead=0;swimlaneBody=0;strokeColor=inherit;top=0;left=0;bottom=0;right=0;collapsible=0;dropTarget=0;fillColor=none;points=[[0,0.5],[1,0.5]];portConstraint=eastwest;fontStyle=1" parent="rALmjC8-9dlUVmQsLGrq-49" vertex="1">
          <mxGeometry y="78" width="163" height="39" as="geometry" />
        </mxCell>
        <mxCell id="rALmjC8-9dlUVmQsLGrq-61" value="" style="shape=partialRectangle;html=1;whiteSpace=wrap;connectable=0;strokeColor=inherit;overflow=hidden;fillColor=none;top=0;left=0;bottom=0;right=0;pointerEvents=1;fontStyle=1" parent="rALmjC8-9dlUVmQsLGrq-60" vertex="1">
          <mxGeometry width="41" height="39" as="geometry">
            <mxRectangle width="41" height="39" as="alternateBounds" />
          </mxGeometry>
        </mxCell>
        <mxCell id="rALmjC8-9dlUVmQsLGrq-62" value="" style="shape=partialRectangle;html=1;whiteSpace=wrap;connectable=0;strokeColor=inherit;overflow=hidden;fillColor=none;top=0;left=0;bottom=0;right=0;pointerEvents=1;fontStyle=1" parent="rALmjC8-9dlUVmQsLGrq-60" vertex="1">
          <mxGeometry x="41" width="41" height="39" as="geometry">
            <mxRectangle width="41" height="39" as="alternateBounds" />
          </mxGeometry>
        </mxCell>
        <mxCell id="rALmjC8-9dlUVmQsLGrq-63" value="" style="shape=partialRectangle;html=1;whiteSpace=wrap;connectable=0;strokeColor=inherit;overflow=hidden;fillColor=none;top=0;left=0;bottom=0;right=0;pointerEvents=1;fontStyle=1" parent="rALmjC8-9dlUVmQsLGrq-60" vertex="1">
          <mxGeometry x="82" width="40" height="39" as="geometry">
            <mxRectangle width="40" height="39" as="alternateBounds" />
          </mxGeometry>
        </mxCell>
        <mxCell id="rALmjC8-9dlUVmQsLGrq-64" value="" style="shape=partialRectangle;html=1;whiteSpace=wrap;connectable=0;strokeColor=inherit;overflow=hidden;fillColor=none;top=0;left=0;bottom=0;right=0;pointerEvents=1;fontStyle=1" parent="rALmjC8-9dlUVmQsLGrq-60" vertex="1">
          <mxGeometry x="122" width="41" height="39" as="geometry">
            <mxRectangle width="41" height="39" as="alternateBounds" />
          </mxGeometry>
        </mxCell>
        <mxCell id="rALmjC8-9dlUVmQsLGrq-65" value="" style="shape=tableRow;horizontal=0;startSize=0;swimlaneHead=0;swimlaneBody=0;strokeColor=inherit;top=0;left=0;bottom=0;right=0;collapsible=0;dropTarget=0;fillColor=none;points=[[0,0.5],[1,0.5]];portConstraint=eastwest;fontStyle=1" parent="rALmjC8-9dlUVmQsLGrq-49" vertex="1">
          <mxGeometry y="117" width="163" height="39" as="geometry" />
        </mxCell>
        <mxCell id="rALmjC8-9dlUVmQsLGrq-66" value="" style="shape=partialRectangle;html=1;whiteSpace=wrap;connectable=0;strokeColor=inherit;overflow=hidden;fillColor=none;top=0;left=0;bottom=0;right=0;pointerEvents=1;fontStyle=1" parent="rALmjC8-9dlUVmQsLGrq-65" vertex="1">
          <mxGeometry width="41" height="39" as="geometry">
            <mxRectangle width="41" height="39" as="alternateBounds" />
          </mxGeometry>
        </mxCell>
        <mxCell id="rALmjC8-9dlUVmQsLGrq-67" value="" style="shape=partialRectangle;html=1;whiteSpace=wrap;connectable=0;strokeColor=inherit;overflow=hidden;fillColor=none;top=0;left=0;bottom=0;right=0;pointerEvents=1;fontStyle=1" parent="rALmjC8-9dlUVmQsLGrq-65" vertex="1">
          <mxGeometry x="41" width="41" height="39" as="geometry">
            <mxRectangle width="41" height="39" as="alternateBounds" />
          </mxGeometry>
        </mxCell>
        <mxCell id="rALmjC8-9dlUVmQsLGrq-68" value="" style="shape=partialRectangle;html=1;whiteSpace=wrap;connectable=0;strokeColor=inherit;overflow=hidden;fillColor=none;top=0;left=0;bottom=0;right=0;pointerEvents=1;fontStyle=1" parent="rALmjC8-9dlUVmQsLGrq-65" vertex="1">
          <mxGeometry x="82" width="40" height="39" as="geometry">
            <mxRectangle width="40" height="39" as="alternateBounds" />
          </mxGeometry>
        </mxCell>
        <mxCell id="rALmjC8-9dlUVmQsLGrq-69" value="" style="shape=partialRectangle;html=1;whiteSpace=wrap;connectable=0;strokeColor=inherit;overflow=hidden;fillColor=none;top=0;left=0;bottom=0;right=0;pointerEvents=1;fontStyle=1" parent="rALmjC8-9dlUVmQsLGrq-65" vertex="1">
          <mxGeometry x="122" width="41" height="39" as="geometry">
            <mxRectangle width="41" height="39" as="alternateBounds" />
          </mxGeometry>
        </mxCell>
        <mxCell id="rALmjC8-9dlUVmQsLGrq-70" value="" style="shape=table;startSize=0;container=1;collapsible=0;childLayout=tableLayout;fontStyle=1;fillColor=#FFFFCC;" parent="rALmjC8-9dlUVmQsLGrq-196" vertex="1">
          <mxGeometry y="156" width="163" height="156" as="geometry" />
        </mxCell>
        <mxCell id="rALmjC8-9dlUVmQsLGrq-71" value="" style="shape=tableRow;horizontal=0;startSize=0;swimlaneHead=0;swimlaneBody=0;strokeColor=inherit;top=0;left=0;bottom=0;right=0;collapsible=0;dropTarget=0;fillColor=none;points=[[0,0.5],[1,0.5]];portConstraint=eastwest;fontStyle=1" parent="rALmjC8-9dlUVmQsLGrq-70" vertex="1">
          <mxGeometry width="163" height="39" as="geometry" />
        </mxCell>
        <mxCell id="rALmjC8-9dlUVmQsLGrq-72" value="" style="shape=partialRectangle;html=1;whiteSpace=wrap;connectable=0;strokeColor=inherit;overflow=hidden;fillColor=none;top=0;left=0;bottom=0;right=0;pointerEvents=1;fontStyle=1" parent="rALmjC8-9dlUVmQsLGrq-71" vertex="1">
          <mxGeometry width="41" height="39" as="geometry">
            <mxRectangle width="41" height="39" as="alternateBounds" />
          </mxGeometry>
        </mxCell>
        <mxCell id="rALmjC8-9dlUVmQsLGrq-73" value="" style="shape=partialRectangle;html=1;whiteSpace=wrap;connectable=0;strokeColor=inherit;overflow=hidden;fillColor=none;top=0;left=0;bottom=0;right=0;pointerEvents=1;fontStyle=1" parent="rALmjC8-9dlUVmQsLGrq-71" vertex="1">
          <mxGeometry x="41" width="41" height="39" as="geometry">
            <mxRectangle width="41" height="39" as="alternateBounds" />
          </mxGeometry>
        </mxCell>
        <mxCell id="rALmjC8-9dlUVmQsLGrq-74" value="" style="shape=partialRectangle;html=1;whiteSpace=wrap;connectable=0;strokeColor=inherit;overflow=hidden;fillColor=none;top=0;left=0;bottom=0;right=0;pointerEvents=1;fontStyle=1" parent="rALmjC8-9dlUVmQsLGrq-71" vertex="1">
          <mxGeometry x="82" width="40" height="39" as="geometry">
            <mxRectangle width="40" height="39" as="alternateBounds" />
          </mxGeometry>
        </mxCell>
        <mxCell id="rALmjC8-9dlUVmQsLGrq-75" value="" style="shape=partialRectangle;html=1;whiteSpace=wrap;connectable=0;strokeColor=inherit;overflow=hidden;fillColor=none;top=0;left=0;bottom=0;right=0;pointerEvents=1;fontStyle=1" parent="rALmjC8-9dlUVmQsLGrq-71" vertex="1">
          <mxGeometry x="122" width="41" height="39" as="geometry">
            <mxRectangle width="41" height="39" as="alternateBounds" />
          </mxGeometry>
        </mxCell>
        <mxCell id="rALmjC8-9dlUVmQsLGrq-76" value="" style="shape=tableRow;horizontal=0;startSize=0;swimlaneHead=0;swimlaneBody=0;strokeColor=inherit;top=0;left=0;bottom=0;right=0;collapsible=0;dropTarget=0;fillColor=none;points=[[0,0.5],[1,0.5]];portConstraint=eastwest;fontStyle=1" parent="rALmjC8-9dlUVmQsLGrq-70" vertex="1">
          <mxGeometry y="39" width="163" height="39" as="geometry" />
        </mxCell>
        <mxCell id="rALmjC8-9dlUVmQsLGrq-77" value="" style="shape=partialRectangle;html=1;whiteSpace=wrap;connectable=0;strokeColor=inherit;overflow=hidden;fillColor=none;top=0;left=0;bottom=0;right=0;pointerEvents=1;fontStyle=1" parent="rALmjC8-9dlUVmQsLGrq-76" vertex="1">
          <mxGeometry width="41" height="39" as="geometry">
            <mxRectangle width="41" height="39" as="alternateBounds" />
          </mxGeometry>
        </mxCell>
        <mxCell id="rALmjC8-9dlUVmQsLGrq-78" value="" style="shape=partialRectangle;html=1;whiteSpace=wrap;connectable=0;strokeColor=inherit;overflow=hidden;fillColor=none;top=0;left=0;bottom=0;right=0;pointerEvents=1;fontStyle=1" parent="rALmjC8-9dlUVmQsLGrq-76" vertex="1">
          <mxGeometry x="41" width="41" height="39" as="geometry">
            <mxRectangle width="41" height="39" as="alternateBounds" />
          </mxGeometry>
        </mxCell>
        <mxCell id="rALmjC8-9dlUVmQsLGrq-79" value="" style="shape=partialRectangle;html=1;whiteSpace=wrap;connectable=0;strokeColor=inherit;overflow=hidden;fillColor=none;top=0;left=0;bottom=0;right=0;pointerEvents=1;fontStyle=1" parent="rALmjC8-9dlUVmQsLGrq-76" vertex="1">
          <mxGeometry x="82" width="40" height="39" as="geometry">
            <mxRectangle width="40" height="39" as="alternateBounds" />
          </mxGeometry>
        </mxCell>
        <mxCell id="rALmjC8-9dlUVmQsLGrq-80" value="" style="shape=partialRectangle;html=1;whiteSpace=wrap;connectable=0;strokeColor=inherit;overflow=hidden;fillColor=none;top=0;left=0;bottom=0;right=0;pointerEvents=1;fontStyle=1" parent="rALmjC8-9dlUVmQsLGrq-76" vertex="1">
          <mxGeometry x="122" width="41" height="39" as="geometry">
            <mxRectangle width="41" height="39" as="alternateBounds" />
          </mxGeometry>
        </mxCell>
        <mxCell id="rALmjC8-9dlUVmQsLGrq-81" value="" style="shape=tableRow;horizontal=0;startSize=0;swimlaneHead=0;swimlaneBody=0;strokeColor=inherit;top=0;left=0;bottom=0;right=0;collapsible=0;dropTarget=0;fillColor=none;points=[[0,0.5],[1,0.5]];portConstraint=eastwest;fontStyle=1" parent="rALmjC8-9dlUVmQsLGrq-70" vertex="1">
          <mxGeometry y="78" width="163" height="39" as="geometry" />
        </mxCell>
        <mxCell id="rALmjC8-9dlUVmQsLGrq-82" value="" style="shape=partialRectangle;html=1;whiteSpace=wrap;connectable=0;strokeColor=inherit;overflow=hidden;fillColor=none;top=0;left=0;bottom=0;right=0;pointerEvents=1;fontStyle=1" parent="rALmjC8-9dlUVmQsLGrq-81" vertex="1">
          <mxGeometry width="41" height="39" as="geometry">
            <mxRectangle width="41" height="39" as="alternateBounds" />
          </mxGeometry>
        </mxCell>
        <mxCell id="rALmjC8-9dlUVmQsLGrq-83" value="" style="shape=partialRectangle;html=1;whiteSpace=wrap;connectable=0;strokeColor=inherit;overflow=hidden;fillColor=none;top=0;left=0;bottom=0;right=0;pointerEvents=1;fontStyle=1" parent="rALmjC8-9dlUVmQsLGrq-81" vertex="1">
          <mxGeometry x="41" width="41" height="39" as="geometry">
            <mxRectangle width="41" height="39" as="alternateBounds" />
          </mxGeometry>
        </mxCell>
        <mxCell id="rALmjC8-9dlUVmQsLGrq-84" value="" style="shape=partialRectangle;html=1;whiteSpace=wrap;connectable=0;strokeColor=inherit;overflow=hidden;fillColor=none;top=0;left=0;bottom=0;right=0;pointerEvents=1;fontStyle=1" parent="rALmjC8-9dlUVmQsLGrq-81" vertex="1">
          <mxGeometry x="82" width="40" height="39" as="geometry">
            <mxRectangle width="40" height="39" as="alternateBounds" />
          </mxGeometry>
        </mxCell>
        <mxCell id="rALmjC8-9dlUVmQsLGrq-85" value="" style="shape=partialRectangle;html=1;whiteSpace=wrap;connectable=0;strokeColor=inherit;overflow=hidden;fillColor=none;top=0;left=0;bottom=0;right=0;pointerEvents=1;fontStyle=1" parent="rALmjC8-9dlUVmQsLGrq-81" vertex="1">
          <mxGeometry x="122" width="41" height="39" as="geometry">
            <mxRectangle width="41" height="39" as="alternateBounds" />
          </mxGeometry>
        </mxCell>
        <mxCell id="rALmjC8-9dlUVmQsLGrq-86" value="" style="shape=tableRow;horizontal=0;startSize=0;swimlaneHead=0;swimlaneBody=0;strokeColor=inherit;top=0;left=0;bottom=0;right=0;collapsible=0;dropTarget=0;fillColor=none;points=[[0,0.5],[1,0.5]];portConstraint=eastwest;fontStyle=1" parent="rALmjC8-9dlUVmQsLGrq-70" vertex="1">
          <mxGeometry y="117" width="163" height="39" as="geometry" />
        </mxCell>
        <mxCell id="rALmjC8-9dlUVmQsLGrq-87" value="" style="shape=partialRectangle;html=1;whiteSpace=wrap;connectable=0;strokeColor=inherit;overflow=hidden;fillColor=none;top=0;left=0;bottom=0;right=0;pointerEvents=1;fontStyle=1" parent="rALmjC8-9dlUVmQsLGrq-86" vertex="1">
          <mxGeometry width="41" height="39" as="geometry">
            <mxRectangle width="41" height="39" as="alternateBounds" />
          </mxGeometry>
        </mxCell>
        <mxCell id="rALmjC8-9dlUVmQsLGrq-88" value="" style="shape=partialRectangle;html=1;whiteSpace=wrap;connectable=0;strokeColor=inherit;overflow=hidden;fillColor=none;top=0;left=0;bottom=0;right=0;pointerEvents=1;fontStyle=1" parent="rALmjC8-9dlUVmQsLGrq-86" vertex="1">
          <mxGeometry x="41" width="41" height="39" as="geometry">
            <mxRectangle width="41" height="39" as="alternateBounds" />
          </mxGeometry>
        </mxCell>
        <mxCell id="rALmjC8-9dlUVmQsLGrq-89" value="" style="shape=partialRectangle;html=1;whiteSpace=wrap;connectable=0;strokeColor=inherit;overflow=hidden;fillColor=none;top=0;left=0;bottom=0;right=0;pointerEvents=1;fontStyle=1" parent="rALmjC8-9dlUVmQsLGrq-86" vertex="1">
          <mxGeometry x="82" width="40" height="39" as="geometry">
            <mxRectangle width="40" height="39" as="alternateBounds" />
          </mxGeometry>
        </mxCell>
        <mxCell id="rALmjC8-9dlUVmQsLGrq-90" value="" style="shape=partialRectangle;html=1;whiteSpace=wrap;connectable=0;strokeColor=inherit;overflow=hidden;fillColor=none;top=0;left=0;bottom=0;right=0;pointerEvents=1;fontStyle=1" parent="rALmjC8-9dlUVmQsLGrq-86" vertex="1">
          <mxGeometry x="122" width="41" height="39" as="geometry">
            <mxRectangle width="41" height="39" as="alternateBounds" />
          </mxGeometry>
        </mxCell>
        <mxCell id="rALmjC8-9dlUVmQsLGrq-91" value="" style="shape=table;startSize=0;container=1;collapsible=0;childLayout=tableLayout;fontStyle=1;fillColor=#FFE6CC;" parent="rALmjC8-9dlUVmQsLGrq-196" vertex="1">
          <mxGeometry x="163" y="156" width="163" height="156" as="geometry" />
        </mxCell>
        <mxCell id="rALmjC8-9dlUVmQsLGrq-92" value="" style="shape=tableRow;horizontal=0;startSize=0;swimlaneHead=0;swimlaneBody=0;strokeColor=inherit;top=0;left=0;bottom=0;right=0;collapsible=0;dropTarget=0;fillColor=none;points=[[0,0.5],[1,0.5]];portConstraint=eastwest;fontStyle=1" parent="rALmjC8-9dlUVmQsLGrq-91" vertex="1">
          <mxGeometry width="163" height="39" as="geometry" />
        </mxCell>
        <mxCell id="rALmjC8-9dlUVmQsLGrq-93" value="" style="shape=partialRectangle;html=1;whiteSpace=wrap;connectable=0;strokeColor=inherit;overflow=hidden;fillColor=none;top=0;left=0;bottom=0;right=0;pointerEvents=1;fontStyle=1" parent="rALmjC8-9dlUVmQsLGrq-92" vertex="1">
          <mxGeometry width="41" height="39" as="geometry">
            <mxRectangle width="41" height="39" as="alternateBounds" />
          </mxGeometry>
        </mxCell>
        <mxCell id="rALmjC8-9dlUVmQsLGrq-94" value="" style="shape=partialRectangle;html=1;whiteSpace=wrap;connectable=0;strokeColor=inherit;overflow=hidden;fillColor=none;top=0;left=0;bottom=0;right=0;pointerEvents=1;fontStyle=1" parent="rALmjC8-9dlUVmQsLGrq-92" vertex="1">
          <mxGeometry x="41" width="41" height="39" as="geometry">
            <mxRectangle width="41" height="39" as="alternateBounds" />
          </mxGeometry>
        </mxCell>
        <mxCell id="rALmjC8-9dlUVmQsLGrq-95" value="" style="shape=partialRectangle;html=1;whiteSpace=wrap;connectable=0;strokeColor=inherit;overflow=hidden;fillColor=none;top=0;left=0;bottom=0;right=0;pointerEvents=1;fontStyle=1" parent="rALmjC8-9dlUVmQsLGrq-92" vertex="1">
          <mxGeometry x="82" width="40" height="39" as="geometry">
            <mxRectangle width="40" height="39" as="alternateBounds" />
          </mxGeometry>
        </mxCell>
        <mxCell id="rALmjC8-9dlUVmQsLGrq-96" value="" style="shape=partialRectangle;html=1;whiteSpace=wrap;connectable=0;strokeColor=inherit;overflow=hidden;fillColor=none;top=0;left=0;bottom=0;right=0;pointerEvents=1;fontStyle=1" parent="rALmjC8-9dlUVmQsLGrq-92" vertex="1">
          <mxGeometry x="122" width="41" height="39" as="geometry">
            <mxRectangle width="41" height="39" as="alternateBounds" />
          </mxGeometry>
        </mxCell>
        <mxCell id="rALmjC8-9dlUVmQsLGrq-97" value="" style="shape=tableRow;horizontal=0;startSize=0;swimlaneHead=0;swimlaneBody=0;strokeColor=inherit;top=0;left=0;bottom=0;right=0;collapsible=0;dropTarget=0;fillColor=none;points=[[0,0.5],[1,0.5]];portConstraint=eastwest;fontStyle=1" parent="rALmjC8-9dlUVmQsLGrq-91" vertex="1">
          <mxGeometry y="39" width="163" height="39" as="geometry" />
        </mxCell>
        <mxCell id="rALmjC8-9dlUVmQsLGrq-98" value="" style="shape=partialRectangle;html=1;whiteSpace=wrap;connectable=0;strokeColor=inherit;overflow=hidden;fillColor=none;top=0;left=0;bottom=0;right=0;pointerEvents=1;fontStyle=1" parent="rALmjC8-9dlUVmQsLGrq-97" vertex="1">
          <mxGeometry width="41" height="39" as="geometry">
            <mxRectangle width="41" height="39" as="alternateBounds" />
          </mxGeometry>
        </mxCell>
        <mxCell id="rALmjC8-9dlUVmQsLGrq-99" value="" style="shape=partialRectangle;html=1;whiteSpace=wrap;connectable=0;strokeColor=inherit;overflow=hidden;fillColor=none;top=0;left=0;bottom=0;right=0;pointerEvents=1;fontStyle=1" parent="rALmjC8-9dlUVmQsLGrq-97" vertex="1">
          <mxGeometry x="41" width="41" height="39" as="geometry">
            <mxRectangle width="41" height="39" as="alternateBounds" />
          </mxGeometry>
        </mxCell>
        <mxCell id="rALmjC8-9dlUVmQsLGrq-100" value="" style="shape=partialRectangle;html=1;whiteSpace=wrap;connectable=0;strokeColor=inherit;overflow=hidden;fillColor=none;top=0;left=0;bottom=0;right=0;pointerEvents=1;fontStyle=1" parent="rALmjC8-9dlUVmQsLGrq-97" vertex="1">
          <mxGeometry x="82" width="40" height="39" as="geometry">
            <mxRectangle width="40" height="39" as="alternateBounds" />
          </mxGeometry>
        </mxCell>
        <mxCell id="rALmjC8-9dlUVmQsLGrq-101" value="" style="shape=partialRectangle;html=1;whiteSpace=wrap;connectable=0;strokeColor=inherit;overflow=hidden;fillColor=none;top=0;left=0;bottom=0;right=0;pointerEvents=1;fontStyle=1" parent="rALmjC8-9dlUVmQsLGrq-97" vertex="1">
          <mxGeometry x="122" width="41" height="39" as="geometry">
            <mxRectangle width="41" height="39" as="alternateBounds" />
          </mxGeometry>
        </mxCell>
        <mxCell id="rALmjC8-9dlUVmQsLGrq-102" value="" style="shape=tableRow;horizontal=0;startSize=0;swimlaneHead=0;swimlaneBody=0;strokeColor=inherit;top=0;left=0;bottom=0;right=0;collapsible=0;dropTarget=0;fillColor=none;points=[[0,0.5],[1,0.5]];portConstraint=eastwest;fontStyle=1" parent="rALmjC8-9dlUVmQsLGrq-91" vertex="1">
          <mxGeometry y="78" width="163" height="39" as="geometry" />
        </mxCell>
        <mxCell id="rALmjC8-9dlUVmQsLGrq-103" value="" style="shape=partialRectangle;html=1;whiteSpace=wrap;connectable=0;strokeColor=inherit;overflow=hidden;fillColor=none;top=0;left=0;bottom=0;right=0;pointerEvents=1;fontStyle=1" parent="rALmjC8-9dlUVmQsLGrq-102" vertex="1">
          <mxGeometry width="41" height="39" as="geometry">
            <mxRectangle width="41" height="39" as="alternateBounds" />
          </mxGeometry>
        </mxCell>
        <mxCell id="rALmjC8-9dlUVmQsLGrq-104" value="" style="shape=partialRectangle;html=1;whiteSpace=wrap;connectable=0;strokeColor=inherit;overflow=hidden;fillColor=none;top=0;left=0;bottom=0;right=0;pointerEvents=1;fontStyle=1" parent="rALmjC8-9dlUVmQsLGrq-102" vertex="1">
          <mxGeometry x="41" width="41" height="39" as="geometry">
            <mxRectangle width="41" height="39" as="alternateBounds" />
          </mxGeometry>
        </mxCell>
        <mxCell id="rALmjC8-9dlUVmQsLGrq-105" value="" style="shape=partialRectangle;html=1;whiteSpace=wrap;connectable=0;strokeColor=inherit;overflow=hidden;fillColor=none;top=0;left=0;bottom=0;right=0;pointerEvents=1;fontStyle=1" parent="rALmjC8-9dlUVmQsLGrq-102" vertex="1">
          <mxGeometry x="82" width="40" height="39" as="geometry">
            <mxRectangle width="40" height="39" as="alternateBounds" />
          </mxGeometry>
        </mxCell>
        <mxCell id="rALmjC8-9dlUVmQsLGrq-106" value="" style="shape=partialRectangle;html=1;whiteSpace=wrap;connectable=0;strokeColor=inherit;overflow=hidden;fillColor=none;top=0;left=0;bottom=0;right=0;pointerEvents=1;fontStyle=1" parent="rALmjC8-9dlUVmQsLGrq-102" vertex="1">
          <mxGeometry x="122" width="41" height="39" as="geometry">
            <mxRectangle width="41" height="39" as="alternateBounds" />
          </mxGeometry>
        </mxCell>
        <mxCell id="rALmjC8-9dlUVmQsLGrq-107" value="" style="shape=tableRow;horizontal=0;startSize=0;swimlaneHead=0;swimlaneBody=0;strokeColor=inherit;top=0;left=0;bottom=0;right=0;collapsible=0;dropTarget=0;fillColor=none;points=[[0,0.5],[1,0.5]];portConstraint=eastwest;fontStyle=1" parent="rALmjC8-9dlUVmQsLGrq-91" vertex="1">
          <mxGeometry y="117" width="163" height="39" as="geometry" />
        </mxCell>
        <mxCell id="rALmjC8-9dlUVmQsLGrq-108" value="" style="shape=partialRectangle;html=1;whiteSpace=wrap;connectable=0;strokeColor=inherit;overflow=hidden;fillColor=none;top=0;left=0;bottom=0;right=0;pointerEvents=1;fontStyle=1" parent="rALmjC8-9dlUVmQsLGrq-107" vertex="1">
          <mxGeometry width="41" height="39" as="geometry">
            <mxRectangle width="41" height="39" as="alternateBounds" />
          </mxGeometry>
        </mxCell>
        <mxCell id="rALmjC8-9dlUVmQsLGrq-109" value="" style="shape=partialRectangle;html=1;whiteSpace=wrap;connectable=0;strokeColor=inherit;overflow=hidden;fillColor=none;top=0;left=0;bottom=0;right=0;pointerEvents=1;fontStyle=1" parent="rALmjC8-9dlUVmQsLGrq-107" vertex="1">
          <mxGeometry x="41" width="41" height="39" as="geometry">
            <mxRectangle width="41" height="39" as="alternateBounds" />
          </mxGeometry>
        </mxCell>
        <mxCell id="rALmjC8-9dlUVmQsLGrq-110" value="" style="shape=partialRectangle;html=1;whiteSpace=wrap;connectable=0;strokeColor=inherit;overflow=hidden;fillColor=none;top=0;left=0;bottom=0;right=0;pointerEvents=1;fontStyle=1" parent="rALmjC8-9dlUVmQsLGrq-107" vertex="1">
          <mxGeometry x="82" width="40" height="39" as="geometry">
            <mxRectangle width="40" height="39" as="alternateBounds" />
          </mxGeometry>
        </mxCell>
        <mxCell id="rALmjC8-9dlUVmQsLGrq-111" value="" style="shape=partialRectangle;html=1;whiteSpace=wrap;connectable=0;strokeColor=inherit;overflow=hidden;fillColor=none;top=0;left=0;bottom=0;right=0;pointerEvents=1;fontStyle=1" parent="rALmjC8-9dlUVmQsLGrq-107" vertex="1">
          <mxGeometry x="122" width="41" height="39" as="geometry">
            <mxRectangle width="41" height="39" as="alternateBounds" />
          </mxGeometry>
        </mxCell>
        <mxCell id="rALmjC8-9dlUVmQsLGrq-197" value="" style="group" parent="1" vertex="1" connectable="0">
          <mxGeometry x="577" y="192" width="326" height="312" as="geometry" />
        </mxCell>
        <mxCell id="rALmjC8-9dlUVmQsLGrq-112" value="" style="shape=table;startSize=0;container=1;collapsible=0;childLayout=tableLayout;fontStyle=1;fillColor=#CCE5FF;" parent="rALmjC8-9dlUVmQsLGrq-197" vertex="1">
          <mxGeometry width="163" height="156" as="geometry" />
        </mxCell>
        <mxCell id="rALmjC8-9dlUVmQsLGrq-113" value="" style="shape=tableRow;horizontal=0;startSize=0;swimlaneHead=0;swimlaneBody=0;strokeColor=inherit;top=0;left=0;bottom=0;right=0;collapsible=0;dropTarget=0;fillColor=none;points=[[0,0.5],[1,0.5]];portConstraint=eastwest;fontStyle=1" parent="rALmjC8-9dlUVmQsLGrq-112" vertex="1">
          <mxGeometry width="163" height="39" as="geometry" />
        </mxCell>
        <mxCell id="rALmjC8-9dlUVmQsLGrq-114" value="0" style="shape=partialRectangle;html=1;whiteSpace=wrap;connectable=0;strokeColor=inherit;overflow=hidden;fillColor=none;top=0;left=0;bottom=0;right=0;pointerEvents=1;fontStyle=1" parent="rALmjC8-9dlUVmQsLGrq-113" vertex="1">
          <mxGeometry width="41" height="39" as="geometry">
            <mxRectangle width="41" height="39" as="alternateBounds" />
          </mxGeometry>
        </mxCell>
        <mxCell id="rALmjC8-9dlUVmQsLGrq-115" value="1" style="shape=partialRectangle;html=1;whiteSpace=wrap;connectable=0;strokeColor=inherit;overflow=hidden;fillColor=none;top=0;left=0;bottom=0;right=0;pointerEvents=1;fontStyle=1" parent="rALmjC8-9dlUVmQsLGrq-113" vertex="1">
          <mxGeometry x="41" width="41" height="39" as="geometry">
            <mxRectangle width="41" height="39" as="alternateBounds" />
          </mxGeometry>
        </mxCell>
        <mxCell id="rALmjC8-9dlUVmQsLGrq-116" value="2" style="shape=partialRectangle;html=1;whiteSpace=wrap;connectable=0;strokeColor=inherit;overflow=hidden;fillColor=none;top=0;left=0;bottom=0;right=0;pointerEvents=1;fontStyle=1" parent="rALmjC8-9dlUVmQsLGrq-113" vertex="1">
          <mxGeometry x="82" width="40" height="39" as="geometry">
            <mxRectangle width="40" height="39" as="alternateBounds" />
          </mxGeometry>
        </mxCell>
        <mxCell id="rALmjC8-9dlUVmQsLGrq-117" value="3" style="shape=partialRectangle;html=1;whiteSpace=wrap;connectable=0;strokeColor=inherit;overflow=hidden;fillColor=none;top=0;left=0;bottom=0;right=0;pointerEvents=1;fontStyle=1" parent="rALmjC8-9dlUVmQsLGrq-113" vertex="1">
          <mxGeometry x="122" width="41" height="39" as="geometry">
            <mxRectangle width="41" height="39" as="alternateBounds" />
          </mxGeometry>
        </mxCell>
        <mxCell id="rALmjC8-9dlUVmQsLGrq-118" value="" style="shape=tableRow;horizontal=0;startSize=0;swimlaneHead=0;swimlaneBody=0;strokeColor=inherit;top=0;left=0;bottom=0;right=0;collapsible=0;dropTarget=0;fillColor=none;points=[[0,0.5],[1,0.5]];portConstraint=eastwest;fontStyle=1" parent="rALmjC8-9dlUVmQsLGrq-112" vertex="1">
          <mxGeometry y="39" width="163" height="39" as="geometry" />
        </mxCell>
        <mxCell id="rALmjC8-9dlUVmQsLGrq-119" value="4" style="shape=partialRectangle;html=1;whiteSpace=wrap;connectable=0;strokeColor=inherit;overflow=hidden;fillColor=none;top=0;left=0;bottom=0;right=0;pointerEvents=1;fontStyle=1" parent="rALmjC8-9dlUVmQsLGrq-118" vertex="1">
          <mxGeometry width="41" height="39" as="geometry">
            <mxRectangle width="41" height="39" as="alternateBounds" />
          </mxGeometry>
        </mxCell>
        <mxCell id="rALmjC8-9dlUVmQsLGrq-120" value="&lt;span&gt;5&lt;/span&gt;" style="shape=partialRectangle;html=1;whiteSpace=wrap;connectable=0;strokeColor=inherit;overflow=hidden;fillColor=none;top=0;left=0;bottom=0;right=0;pointerEvents=1;fontStyle=1" parent="rALmjC8-9dlUVmQsLGrq-118" vertex="1">
          <mxGeometry x="41" width="41" height="39" as="geometry">
            <mxRectangle width="41" height="39" as="alternateBounds" />
          </mxGeometry>
        </mxCell>
        <mxCell id="rALmjC8-9dlUVmQsLGrq-121" value="6" style="shape=partialRectangle;html=1;whiteSpace=wrap;connectable=0;strokeColor=inherit;overflow=hidden;fillColor=none;top=0;left=0;bottom=0;right=0;pointerEvents=1;fontStyle=1" parent="rALmjC8-9dlUVmQsLGrq-118" vertex="1">
          <mxGeometry x="82" width="40" height="39" as="geometry">
            <mxRectangle width="40" height="39" as="alternateBounds" />
          </mxGeometry>
        </mxCell>
        <mxCell id="rALmjC8-9dlUVmQsLGrq-122" value="7" style="shape=partialRectangle;html=1;whiteSpace=wrap;connectable=0;strokeColor=inherit;overflow=hidden;fillColor=none;top=0;left=0;bottom=0;right=0;pointerEvents=1;fontStyle=1" parent="rALmjC8-9dlUVmQsLGrq-118" vertex="1">
          <mxGeometry x="122" width="41" height="39" as="geometry">
            <mxRectangle width="41" height="39" as="alternateBounds" />
          </mxGeometry>
        </mxCell>
        <mxCell id="rALmjC8-9dlUVmQsLGrq-123" value="" style="shape=tableRow;horizontal=0;startSize=0;swimlaneHead=0;swimlaneBody=0;strokeColor=inherit;top=0;left=0;bottom=0;right=0;collapsible=0;dropTarget=0;fillColor=none;points=[[0,0.5],[1,0.5]];portConstraint=eastwest;fontStyle=1" parent="rALmjC8-9dlUVmQsLGrq-112" vertex="1">
          <mxGeometry y="78" width="163" height="39" as="geometry" />
        </mxCell>
        <mxCell id="rALmjC8-9dlUVmQsLGrq-124" value="8" style="shape=partialRectangle;html=1;whiteSpace=wrap;connectable=0;strokeColor=inherit;overflow=hidden;fillColor=none;top=0;left=0;bottom=0;right=0;pointerEvents=1;fontStyle=1" parent="rALmjC8-9dlUVmQsLGrq-123" vertex="1">
          <mxGeometry width="41" height="39" as="geometry">
            <mxRectangle width="41" height="39" as="alternateBounds" />
          </mxGeometry>
        </mxCell>
        <mxCell id="rALmjC8-9dlUVmQsLGrq-125" value="9" style="shape=partialRectangle;html=1;whiteSpace=wrap;connectable=0;strokeColor=inherit;overflow=hidden;fillColor=none;top=0;left=0;bottom=0;right=0;pointerEvents=1;fontStyle=1" parent="rALmjC8-9dlUVmQsLGrq-123" vertex="1">
          <mxGeometry x="41" width="41" height="39" as="geometry">
            <mxRectangle width="41" height="39" as="alternateBounds" />
          </mxGeometry>
        </mxCell>
        <mxCell id="rALmjC8-9dlUVmQsLGrq-126" value="10" style="shape=partialRectangle;html=1;whiteSpace=wrap;connectable=0;strokeColor=inherit;overflow=hidden;fillColor=none;top=0;left=0;bottom=0;right=0;pointerEvents=1;fontStyle=1" parent="rALmjC8-9dlUVmQsLGrq-123" vertex="1">
          <mxGeometry x="82" width="40" height="39" as="geometry">
            <mxRectangle width="40" height="39" as="alternateBounds" />
          </mxGeometry>
        </mxCell>
        <mxCell id="rALmjC8-9dlUVmQsLGrq-127" value="11" style="shape=partialRectangle;html=1;whiteSpace=wrap;connectable=0;strokeColor=inherit;overflow=hidden;fillColor=none;top=0;left=0;bottom=0;right=0;pointerEvents=1;fontStyle=1" parent="rALmjC8-9dlUVmQsLGrq-123" vertex="1">
          <mxGeometry x="122" width="41" height="39" as="geometry">
            <mxRectangle width="41" height="39" as="alternateBounds" />
          </mxGeometry>
        </mxCell>
        <mxCell id="rALmjC8-9dlUVmQsLGrq-128" value="" style="shape=tableRow;horizontal=0;startSize=0;swimlaneHead=0;swimlaneBody=0;strokeColor=inherit;top=0;left=0;bottom=0;right=0;collapsible=0;dropTarget=0;fillColor=none;points=[[0,0.5],[1,0.5]];portConstraint=eastwest;fontStyle=1" parent="rALmjC8-9dlUVmQsLGrq-112" vertex="1">
          <mxGeometry y="117" width="163" height="39" as="geometry" />
        </mxCell>
        <mxCell id="rALmjC8-9dlUVmQsLGrq-129" value="12" style="shape=partialRectangle;html=1;whiteSpace=wrap;connectable=0;strokeColor=inherit;overflow=hidden;fillColor=none;top=0;left=0;bottom=0;right=0;pointerEvents=1;fontStyle=1" parent="rALmjC8-9dlUVmQsLGrq-128" vertex="1">
          <mxGeometry width="41" height="39" as="geometry">
            <mxRectangle width="41" height="39" as="alternateBounds" />
          </mxGeometry>
        </mxCell>
        <mxCell id="rALmjC8-9dlUVmQsLGrq-130" value="13" style="shape=partialRectangle;html=1;whiteSpace=wrap;connectable=0;strokeColor=inherit;overflow=hidden;fillColor=none;top=0;left=0;bottom=0;right=0;pointerEvents=1;fontStyle=1" parent="rALmjC8-9dlUVmQsLGrq-128" vertex="1">
          <mxGeometry x="41" width="41" height="39" as="geometry">
            <mxRectangle width="41" height="39" as="alternateBounds" />
          </mxGeometry>
        </mxCell>
        <mxCell id="rALmjC8-9dlUVmQsLGrq-131" value="14" style="shape=partialRectangle;html=1;whiteSpace=wrap;connectable=0;strokeColor=inherit;overflow=hidden;fillColor=none;top=0;left=0;bottom=0;right=0;pointerEvents=1;fontStyle=1" parent="rALmjC8-9dlUVmQsLGrq-128" vertex="1">
          <mxGeometry x="82" width="40" height="39" as="geometry">
            <mxRectangle width="40" height="39" as="alternateBounds" />
          </mxGeometry>
        </mxCell>
        <mxCell id="rALmjC8-9dlUVmQsLGrq-132" value="15" style="shape=partialRectangle;html=1;whiteSpace=wrap;connectable=0;strokeColor=inherit;overflow=hidden;fillColor=none;top=0;left=0;bottom=0;right=0;pointerEvents=1;fontStyle=1" parent="rALmjC8-9dlUVmQsLGrq-128" vertex="1">
          <mxGeometry x="122" width="41" height="39" as="geometry">
            <mxRectangle width="41" height="39" as="alternateBounds" />
          </mxGeometry>
        </mxCell>
        <mxCell id="rALmjC8-9dlUVmQsLGrq-133" value="" style="shape=table;startSize=0;container=1;collapsible=0;childLayout=tableLayout;fontStyle=1;fillColor=#CCFFCC;" parent="rALmjC8-9dlUVmQsLGrq-197" vertex="1">
          <mxGeometry x="163" width="163" height="156" as="geometry" />
        </mxCell>
        <mxCell id="rALmjC8-9dlUVmQsLGrq-134" value="" style="shape=tableRow;horizontal=0;startSize=0;swimlaneHead=0;swimlaneBody=0;strokeColor=inherit;top=0;left=0;bottom=0;right=0;collapsible=0;dropTarget=0;fillColor=none;points=[[0,0.5],[1,0.5]];portConstraint=eastwest;fontStyle=1" parent="rALmjC8-9dlUVmQsLGrq-133" vertex="1">
          <mxGeometry width="163" height="39" as="geometry" />
        </mxCell>
        <mxCell id="rALmjC8-9dlUVmQsLGrq-135" value="16" style="shape=partialRectangle;html=1;whiteSpace=wrap;connectable=0;strokeColor=inherit;overflow=hidden;fillColor=none;top=0;left=0;bottom=0;right=0;pointerEvents=1;fontStyle=1" parent="rALmjC8-9dlUVmQsLGrq-134" vertex="1">
          <mxGeometry width="41" height="39" as="geometry">
            <mxRectangle width="41" height="39" as="alternateBounds" />
          </mxGeometry>
        </mxCell>
        <mxCell id="rALmjC8-9dlUVmQsLGrq-136" value="17" style="shape=partialRectangle;html=1;whiteSpace=wrap;connectable=0;strokeColor=inherit;overflow=hidden;fillColor=none;top=0;left=0;bottom=0;right=0;pointerEvents=1;fontStyle=1" parent="rALmjC8-9dlUVmQsLGrq-134" vertex="1">
          <mxGeometry x="41" width="41" height="39" as="geometry">
            <mxRectangle width="41" height="39" as="alternateBounds" />
          </mxGeometry>
        </mxCell>
        <mxCell id="rALmjC8-9dlUVmQsLGrq-137" value="..." style="shape=partialRectangle;html=1;whiteSpace=wrap;connectable=0;strokeColor=inherit;overflow=hidden;fillColor=none;top=0;left=0;bottom=0;right=0;pointerEvents=1;fontStyle=1" parent="rALmjC8-9dlUVmQsLGrq-134" vertex="1">
          <mxGeometry x="82" width="40" height="39" as="geometry">
            <mxRectangle width="40" height="39" as="alternateBounds" />
          </mxGeometry>
        </mxCell>
        <mxCell id="rALmjC8-9dlUVmQsLGrq-138" value="" style="shape=partialRectangle;html=1;whiteSpace=wrap;connectable=0;strokeColor=inherit;overflow=hidden;fillColor=none;top=0;left=0;bottom=0;right=0;pointerEvents=1;fontStyle=1" parent="rALmjC8-9dlUVmQsLGrq-134" vertex="1">
          <mxGeometry x="122" width="41" height="39" as="geometry">
            <mxRectangle width="41" height="39" as="alternateBounds" />
          </mxGeometry>
        </mxCell>
        <mxCell id="rALmjC8-9dlUVmQsLGrq-139" value="" style="shape=tableRow;horizontal=0;startSize=0;swimlaneHead=0;swimlaneBody=0;strokeColor=inherit;top=0;left=0;bottom=0;right=0;collapsible=0;dropTarget=0;fillColor=none;points=[[0,0.5],[1,0.5]];portConstraint=eastwest;fontStyle=1" parent="rALmjC8-9dlUVmQsLGrq-133" vertex="1">
          <mxGeometry y="39" width="163" height="39" as="geometry" />
        </mxCell>
        <mxCell id="rALmjC8-9dlUVmQsLGrq-140" value="" style="shape=partialRectangle;html=1;whiteSpace=wrap;connectable=0;strokeColor=inherit;overflow=hidden;fillColor=none;top=0;left=0;bottom=0;right=0;pointerEvents=1;fontStyle=1" parent="rALmjC8-9dlUVmQsLGrq-139" vertex="1">
          <mxGeometry width="41" height="39" as="geometry">
            <mxRectangle width="41" height="39" as="alternateBounds" />
          </mxGeometry>
        </mxCell>
        <mxCell id="rALmjC8-9dlUVmQsLGrq-141" value="" style="shape=partialRectangle;html=1;whiteSpace=wrap;connectable=0;strokeColor=inherit;overflow=hidden;fillColor=none;top=0;left=0;bottom=0;right=0;pointerEvents=1;fontStyle=1" parent="rALmjC8-9dlUVmQsLGrq-139" vertex="1">
          <mxGeometry x="41" width="41" height="39" as="geometry">
            <mxRectangle width="41" height="39" as="alternateBounds" />
          </mxGeometry>
        </mxCell>
        <mxCell id="rALmjC8-9dlUVmQsLGrq-142" value="" style="shape=partialRectangle;html=1;whiteSpace=wrap;connectable=0;strokeColor=inherit;overflow=hidden;fillColor=none;top=0;left=0;bottom=0;right=0;pointerEvents=1;fontStyle=1" parent="rALmjC8-9dlUVmQsLGrq-139" vertex="1">
          <mxGeometry x="82" width="40" height="39" as="geometry">
            <mxRectangle width="40" height="39" as="alternateBounds" />
          </mxGeometry>
        </mxCell>
        <mxCell id="rALmjC8-9dlUVmQsLGrq-143" value="" style="shape=partialRectangle;html=1;whiteSpace=wrap;connectable=0;strokeColor=inherit;overflow=hidden;fillColor=none;top=0;left=0;bottom=0;right=0;pointerEvents=1;fontStyle=1" parent="rALmjC8-9dlUVmQsLGrq-139" vertex="1">
          <mxGeometry x="122" width="41" height="39" as="geometry">
            <mxRectangle width="41" height="39" as="alternateBounds" />
          </mxGeometry>
        </mxCell>
        <mxCell id="rALmjC8-9dlUVmQsLGrq-144" value="" style="shape=tableRow;horizontal=0;startSize=0;swimlaneHead=0;swimlaneBody=0;strokeColor=inherit;top=0;left=0;bottom=0;right=0;collapsible=0;dropTarget=0;fillColor=none;points=[[0,0.5],[1,0.5]];portConstraint=eastwest;fontStyle=1" parent="rALmjC8-9dlUVmQsLGrq-133" vertex="1">
          <mxGeometry y="78" width="163" height="39" as="geometry" />
        </mxCell>
        <mxCell id="rALmjC8-9dlUVmQsLGrq-145" value="" style="shape=partialRectangle;html=1;whiteSpace=wrap;connectable=0;strokeColor=inherit;overflow=hidden;fillColor=none;top=0;left=0;bottom=0;right=0;pointerEvents=1;fontStyle=1" parent="rALmjC8-9dlUVmQsLGrq-144" vertex="1">
          <mxGeometry width="41" height="39" as="geometry">
            <mxRectangle width="41" height="39" as="alternateBounds" />
          </mxGeometry>
        </mxCell>
        <mxCell id="rALmjC8-9dlUVmQsLGrq-146" value="" style="shape=partialRectangle;html=1;whiteSpace=wrap;connectable=0;strokeColor=inherit;overflow=hidden;fillColor=none;top=0;left=0;bottom=0;right=0;pointerEvents=1;fontStyle=1" parent="rALmjC8-9dlUVmQsLGrq-144" vertex="1">
          <mxGeometry x="41" width="41" height="39" as="geometry">
            <mxRectangle width="41" height="39" as="alternateBounds" />
          </mxGeometry>
        </mxCell>
        <mxCell id="rALmjC8-9dlUVmQsLGrq-147" value="" style="shape=partialRectangle;html=1;whiteSpace=wrap;connectable=0;strokeColor=inherit;overflow=hidden;fillColor=none;top=0;left=0;bottom=0;right=0;pointerEvents=1;fontStyle=1" parent="rALmjC8-9dlUVmQsLGrq-144" vertex="1">
          <mxGeometry x="82" width="40" height="39" as="geometry">
            <mxRectangle width="40" height="39" as="alternateBounds" />
          </mxGeometry>
        </mxCell>
        <mxCell id="rALmjC8-9dlUVmQsLGrq-148" value="" style="shape=partialRectangle;html=1;whiteSpace=wrap;connectable=0;strokeColor=inherit;overflow=hidden;fillColor=none;top=0;left=0;bottom=0;right=0;pointerEvents=1;fontStyle=1" parent="rALmjC8-9dlUVmQsLGrq-144" vertex="1">
          <mxGeometry x="122" width="41" height="39" as="geometry">
            <mxRectangle width="41" height="39" as="alternateBounds" />
          </mxGeometry>
        </mxCell>
        <mxCell id="rALmjC8-9dlUVmQsLGrq-149" value="" style="shape=tableRow;horizontal=0;startSize=0;swimlaneHead=0;swimlaneBody=0;strokeColor=inherit;top=0;left=0;bottom=0;right=0;collapsible=0;dropTarget=0;fillColor=none;points=[[0,0.5],[1,0.5]];portConstraint=eastwest;fontStyle=1" parent="rALmjC8-9dlUVmQsLGrq-133" vertex="1">
          <mxGeometry y="117" width="163" height="39" as="geometry" />
        </mxCell>
        <mxCell id="rALmjC8-9dlUVmQsLGrq-150" value="" style="shape=partialRectangle;html=1;whiteSpace=wrap;connectable=0;strokeColor=inherit;overflow=hidden;fillColor=none;top=0;left=0;bottom=0;right=0;pointerEvents=1;fontStyle=1" parent="rALmjC8-9dlUVmQsLGrq-149" vertex="1">
          <mxGeometry width="41" height="39" as="geometry">
            <mxRectangle width="41" height="39" as="alternateBounds" />
          </mxGeometry>
        </mxCell>
        <mxCell id="rALmjC8-9dlUVmQsLGrq-151" value="" style="shape=partialRectangle;html=1;whiteSpace=wrap;connectable=0;strokeColor=inherit;overflow=hidden;fillColor=none;top=0;left=0;bottom=0;right=0;pointerEvents=1;fontStyle=1" parent="rALmjC8-9dlUVmQsLGrq-149" vertex="1">
          <mxGeometry x="41" width="41" height="39" as="geometry">
            <mxRectangle width="41" height="39" as="alternateBounds" />
          </mxGeometry>
        </mxCell>
        <mxCell id="rALmjC8-9dlUVmQsLGrq-152" value="" style="shape=partialRectangle;html=1;whiteSpace=wrap;connectable=0;strokeColor=inherit;overflow=hidden;fillColor=none;top=0;left=0;bottom=0;right=0;pointerEvents=1;fontStyle=1" parent="rALmjC8-9dlUVmQsLGrq-149" vertex="1">
          <mxGeometry x="82" width="40" height="39" as="geometry">
            <mxRectangle width="40" height="39" as="alternateBounds" />
          </mxGeometry>
        </mxCell>
        <mxCell id="rALmjC8-9dlUVmQsLGrq-153" value="" style="shape=partialRectangle;html=1;whiteSpace=wrap;connectable=0;strokeColor=inherit;overflow=hidden;fillColor=none;top=0;left=0;bottom=0;right=0;pointerEvents=1;fontStyle=1" parent="rALmjC8-9dlUVmQsLGrq-149" vertex="1">
          <mxGeometry x="122" width="41" height="39" as="geometry">
            <mxRectangle width="41" height="39" as="alternateBounds" />
          </mxGeometry>
        </mxCell>
        <mxCell id="rALmjC8-9dlUVmQsLGrq-154" value="" style="shape=table;startSize=0;container=1;collapsible=0;childLayout=tableLayout;fontStyle=1;fillColor=#FFFFCC;" parent="rALmjC8-9dlUVmQsLGrq-197" vertex="1">
          <mxGeometry y="156" width="163" height="156" as="geometry" />
        </mxCell>
        <mxCell id="rALmjC8-9dlUVmQsLGrq-155" value="" style="shape=tableRow;horizontal=0;startSize=0;swimlaneHead=0;swimlaneBody=0;strokeColor=inherit;top=0;left=0;bottom=0;right=0;collapsible=0;dropTarget=0;fillColor=none;points=[[0,0.5],[1,0.5]];portConstraint=eastwest;fontStyle=1" parent="rALmjC8-9dlUVmQsLGrq-154" vertex="1">
          <mxGeometry width="163" height="39" as="geometry" />
        </mxCell>
        <mxCell id="rALmjC8-9dlUVmQsLGrq-156" value="" style="shape=partialRectangle;html=1;whiteSpace=wrap;connectable=0;strokeColor=inherit;overflow=hidden;fillColor=none;top=0;left=0;bottom=0;right=0;pointerEvents=1;fontStyle=1" parent="rALmjC8-9dlUVmQsLGrq-155" vertex="1">
          <mxGeometry width="41" height="39" as="geometry">
            <mxRectangle width="41" height="39" as="alternateBounds" />
          </mxGeometry>
        </mxCell>
        <mxCell id="rALmjC8-9dlUVmQsLGrq-157" value="" style="shape=partialRectangle;html=1;whiteSpace=wrap;connectable=0;strokeColor=inherit;overflow=hidden;fillColor=none;top=0;left=0;bottom=0;right=0;pointerEvents=1;fontStyle=1" parent="rALmjC8-9dlUVmQsLGrq-155" vertex="1">
          <mxGeometry x="41" width="41" height="39" as="geometry">
            <mxRectangle width="41" height="39" as="alternateBounds" />
          </mxGeometry>
        </mxCell>
        <mxCell id="rALmjC8-9dlUVmQsLGrq-158" value="" style="shape=partialRectangle;html=1;whiteSpace=wrap;connectable=0;strokeColor=inherit;overflow=hidden;fillColor=none;top=0;left=0;bottom=0;right=0;pointerEvents=1;fontStyle=1" parent="rALmjC8-9dlUVmQsLGrq-155" vertex="1">
          <mxGeometry x="82" width="40" height="39" as="geometry">
            <mxRectangle width="40" height="39" as="alternateBounds" />
          </mxGeometry>
        </mxCell>
        <mxCell id="rALmjC8-9dlUVmQsLGrq-159" value="" style="shape=partialRectangle;html=1;whiteSpace=wrap;connectable=0;strokeColor=inherit;overflow=hidden;fillColor=none;top=0;left=0;bottom=0;right=0;pointerEvents=1;fontStyle=1" parent="rALmjC8-9dlUVmQsLGrq-155" vertex="1">
          <mxGeometry x="122" width="41" height="39" as="geometry">
            <mxRectangle width="41" height="39" as="alternateBounds" />
          </mxGeometry>
        </mxCell>
        <mxCell id="rALmjC8-9dlUVmQsLGrq-160" value="" style="shape=tableRow;horizontal=0;startSize=0;swimlaneHead=0;swimlaneBody=0;strokeColor=inherit;top=0;left=0;bottom=0;right=0;collapsible=0;dropTarget=0;fillColor=none;points=[[0,0.5],[1,0.5]];portConstraint=eastwest;fontStyle=1" parent="rALmjC8-9dlUVmQsLGrq-154" vertex="1">
          <mxGeometry y="39" width="163" height="39" as="geometry" />
        </mxCell>
        <mxCell id="rALmjC8-9dlUVmQsLGrq-161" value="" style="shape=partialRectangle;html=1;whiteSpace=wrap;connectable=0;strokeColor=inherit;overflow=hidden;fillColor=none;top=0;left=0;bottom=0;right=0;pointerEvents=1;fontStyle=1" parent="rALmjC8-9dlUVmQsLGrq-160" vertex="1">
          <mxGeometry width="41" height="39" as="geometry">
            <mxRectangle width="41" height="39" as="alternateBounds" />
          </mxGeometry>
        </mxCell>
        <mxCell id="rALmjC8-9dlUVmQsLGrq-162" value="" style="shape=partialRectangle;html=1;whiteSpace=wrap;connectable=0;strokeColor=inherit;overflow=hidden;fillColor=none;top=0;left=0;bottom=0;right=0;pointerEvents=1;fontStyle=1" parent="rALmjC8-9dlUVmQsLGrq-160" vertex="1">
          <mxGeometry x="41" width="41" height="39" as="geometry">
            <mxRectangle width="41" height="39" as="alternateBounds" />
          </mxGeometry>
        </mxCell>
        <mxCell id="rALmjC8-9dlUVmQsLGrq-163" value="" style="shape=partialRectangle;html=1;whiteSpace=wrap;connectable=0;strokeColor=inherit;overflow=hidden;fillColor=none;top=0;left=0;bottom=0;right=0;pointerEvents=1;fontStyle=1" parent="rALmjC8-9dlUVmQsLGrq-160" vertex="1">
          <mxGeometry x="82" width="40" height="39" as="geometry">
            <mxRectangle width="40" height="39" as="alternateBounds" />
          </mxGeometry>
        </mxCell>
        <mxCell id="rALmjC8-9dlUVmQsLGrq-164" value="" style="shape=partialRectangle;html=1;whiteSpace=wrap;connectable=0;strokeColor=inherit;overflow=hidden;fillColor=none;top=0;left=0;bottom=0;right=0;pointerEvents=1;fontStyle=1" parent="rALmjC8-9dlUVmQsLGrq-160" vertex="1">
          <mxGeometry x="122" width="41" height="39" as="geometry">
            <mxRectangle width="41" height="39" as="alternateBounds" />
          </mxGeometry>
        </mxCell>
        <mxCell id="rALmjC8-9dlUVmQsLGrq-165" value="" style="shape=tableRow;horizontal=0;startSize=0;swimlaneHead=0;swimlaneBody=0;strokeColor=inherit;top=0;left=0;bottom=0;right=0;collapsible=0;dropTarget=0;fillColor=none;points=[[0,0.5],[1,0.5]];portConstraint=eastwest;fontStyle=1" parent="rALmjC8-9dlUVmQsLGrq-154" vertex="1">
          <mxGeometry y="78" width="163" height="39" as="geometry" />
        </mxCell>
        <mxCell id="rALmjC8-9dlUVmQsLGrq-166" value="" style="shape=partialRectangle;html=1;whiteSpace=wrap;connectable=0;strokeColor=inherit;overflow=hidden;fillColor=none;top=0;left=0;bottom=0;right=0;pointerEvents=1;fontStyle=1" parent="rALmjC8-9dlUVmQsLGrq-165" vertex="1">
          <mxGeometry width="41" height="39" as="geometry">
            <mxRectangle width="41" height="39" as="alternateBounds" />
          </mxGeometry>
        </mxCell>
        <mxCell id="rALmjC8-9dlUVmQsLGrq-167" value="" style="shape=partialRectangle;html=1;whiteSpace=wrap;connectable=0;strokeColor=inherit;overflow=hidden;fillColor=none;top=0;left=0;bottom=0;right=0;pointerEvents=1;fontStyle=1" parent="rALmjC8-9dlUVmQsLGrq-165" vertex="1">
          <mxGeometry x="41" width="41" height="39" as="geometry">
            <mxRectangle width="41" height="39" as="alternateBounds" />
          </mxGeometry>
        </mxCell>
        <mxCell id="rALmjC8-9dlUVmQsLGrq-168" value="" style="shape=partialRectangle;html=1;whiteSpace=wrap;connectable=0;strokeColor=inherit;overflow=hidden;fillColor=none;top=0;left=0;bottom=0;right=0;pointerEvents=1;fontStyle=1" parent="rALmjC8-9dlUVmQsLGrq-165" vertex="1">
          <mxGeometry x="82" width="40" height="39" as="geometry">
            <mxRectangle width="40" height="39" as="alternateBounds" />
          </mxGeometry>
        </mxCell>
        <mxCell id="rALmjC8-9dlUVmQsLGrq-169" value="" style="shape=partialRectangle;html=1;whiteSpace=wrap;connectable=0;strokeColor=inherit;overflow=hidden;fillColor=none;top=0;left=0;bottom=0;right=0;pointerEvents=1;fontStyle=1" parent="rALmjC8-9dlUVmQsLGrq-165" vertex="1">
          <mxGeometry x="122" width="41" height="39" as="geometry">
            <mxRectangle width="41" height="39" as="alternateBounds" />
          </mxGeometry>
        </mxCell>
        <mxCell id="rALmjC8-9dlUVmQsLGrq-170" value="" style="shape=tableRow;horizontal=0;startSize=0;swimlaneHead=0;swimlaneBody=0;strokeColor=inherit;top=0;left=0;bottom=0;right=0;collapsible=0;dropTarget=0;fillColor=none;points=[[0,0.5],[1,0.5]];portConstraint=eastwest;fontStyle=1" parent="rALmjC8-9dlUVmQsLGrq-154" vertex="1">
          <mxGeometry y="117" width="163" height="39" as="geometry" />
        </mxCell>
        <mxCell id="rALmjC8-9dlUVmQsLGrq-171" value="" style="shape=partialRectangle;html=1;whiteSpace=wrap;connectable=0;strokeColor=inherit;overflow=hidden;fillColor=none;top=0;left=0;bottom=0;right=0;pointerEvents=1;fontStyle=1" parent="rALmjC8-9dlUVmQsLGrq-170" vertex="1">
          <mxGeometry width="41" height="39" as="geometry">
            <mxRectangle width="41" height="39" as="alternateBounds" />
          </mxGeometry>
        </mxCell>
        <mxCell id="rALmjC8-9dlUVmQsLGrq-172" value="" style="shape=partialRectangle;html=1;whiteSpace=wrap;connectable=0;strokeColor=inherit;overflow=hidden;fillColor=none;top=0;left=0;bottom=0;right=0;pointerEvents=1;fontStyle=1" parent="rALmjC8-9dlUVmQsLGrq-170" vertex="1">
          <mxGeometry x="41" width="41" height="39" as="geometry">
            <mxRectangle width="41" height="39" as="alternateBounds" />
          </mxGeometry>
        </mxCell>
        <mxCell id="rALmjC8-9dlUVmQsLGrq-173" value="" style="shape=partialRectangle;html=1;whiteSpace=wrap;connectable=0;strokeColor=inherit;overflow=hidden;fillColor=none;top=0;left=0;bottom=0;right=0;pointerEvents=1;fontStyle=1" parent="rALmjC8-9dlUVmQsLGrq-170" vertex="1">
          <mxGeometry x="82" width="40" height="39" as="geometry">
            <mxRectangle width="40" height="39" as="alternateBounds" />
          </mxGeometry>
        </mxCell>
        <mxCell id="rALmjC8-9dlUVmQsLGrq-174" value="" style="shape=partialRectangle;html=1;whiteSpace=wrap;connectable=0;strokeColor=inherit;overflow=hidden;fillColor=none;top=0;left=0;bottom=0;right=0;pointerEvents=1;fontStyle=1" parent="rALmjC8-9dlUVmQsLGrq-170" vertex="1">
          <mxGeometry x="122" width="41" height="39" as="geometry">
            <mxRectangle width="41" height="39" as="alternateBounds" />
          </mxGeometry>
        </mxCell>
        <mxCell id="rALmjC8-9dlUVmQsLGrq-175" value="" style="shape=table;startSize=0;container=1;collapsible=0;childLayout=tableLayout;fontStyle=1;fillColor=#FFE6CC;" parent="rALmjC8-9dlUVmQsLGrq-197" vertex="1">
          <mxGeometry x="163" y="156" width="163" height="156" as="geometry" />
        </mxCell>
        <mxCell id="rALmjC8-9dlUVmQsLGrq-176" value="" style="shape=tableRow;horizontal=0;startSize=0;swimlaneHead=0;swimlaneBody=0;strokeColor=inherit;top=0;left=0;bottom=0;right=0;collapsible=0;dropTarget=0;fillColor=none;points=[[0,0.5],[1,0.5]];portConstraint=eastwest;fontStyle=1" parent="rALmjC8-9dlUVmQsLGrq-175" vertex="1">
          <mxGeometry width="163" height="39" as="geometry" />
        </mxCell>
        <mxCell id="rALmjC8-9dlUVmQsLGrq-177" value="" style="shape=partialRectangle;html=1;whiteSpace=wrap;connectable=0;strokeColor=inherit;overflow=hidden;fillColor=none;top=0;left=0;bottom=0;right=0;pointerEvents=1;fontStyle=1" parent="rALmjC8-9dlUVmQsLGrq-176" vertex="1">
          <mxGeometry width="41" height="39" as="geometry">
            <mxRectangle width="41" height="39" as="alternateBounds" />
          </mxGeometry>
        </mxCell>
        <mxCell id="rALmjC8-9dlUVmQsLGrq-178" value="" style="shape=partialRectangle;html=1;whiteSpace=wrap;connectable=0;strokeColor=inherit;overflow=hidden;fillColor=none;top=0;left=0;bottom=0;right=0;pointerEvents=1;fontStyle=1" parent="rALmjC8-9dlUVmQsLGrq-176" vertex="1">
          <mxGeometry x="41" width="41" height="39" as="geometry">
            <mxRectangle width="41" height="39" as="alternateBounds" />
          </mxGeometry>
        </mxCell>
        <mxCell id="rALmjC8-9dlUVmQsLGrq-179" value="" style="shape=partialRectangle;html=1;whiteSpace=wrap;connectable=0;strokeColor=inherit;overflow=hidden;fillColor=none;top=0;left=0;bottom=0;right=0;pointerEvents=1;fontStyle=1" parent="rALmjC8-9dlUVmQsLGrq-176" vertex="1">
          <mxGeometry x="82" width="40" height="39" as="geometry">
            <mxRectangle width="40" height="39" as="alternateBounds" />
          </mxGeometry>
        </mxCell>
        <mxCell id="rALmjC8-9dlUVmQsLGrq-180" value="" style="shape=partialRectangle;html=1;whiteSpace=wrap;connectable=0;strokeColor=inherit;overflow=hidden;fillColor=none;top=0;left=0;bottom=0;right=0;pointerEvents=1;fontStyle=1" parent="rALmjC8-9dlUVmQsLGrq-176" vertex="1">
          <mxGeometry x="122" width="41" height="39" as="geometry">
            <mxRectangle width="41" height="39" as="alternateBounds" />
          </mxGeometry>
        </mxCell>
        <mxCell id="rALmjC8-9dlUVmQsLGrq-181" value="" style="shape=tableRow;horizontal=0;startSize=0;swimlaneHead=0;swimlaneBody=0;strokeColor=inherit;top=0;left=0;bottom=0;right=0;collapsible=0;dropTarget=0;fillColor=none;points=[[0,0.5],[1,0.5]];portConstraint=eastwest;fontStyle=1" parent="rALmjC8-9dlUVmQsLGrq-175" vertex="1">
          <mxGeometry y="39" width="163" height="39" as="geometry" />
        </mxCell>
        <mxCell id="rALmjC8-9dlUVmQsLGrq-182" value="" style="shape=partialRectangle;html=1;whiteSpace=wrap;connectable=0;strokeColor=inherit;overflow=hidden;fillColor=none;top=0;left=0;bottom=0;right=0;pointerEvents=1;fontStyle=1" parent="rALmjC8-9dlUVmQsLGrq-181" vertex="1">
          <mxGeometry width="41" height="39" as="geometry">
            <mxRectangle width="41" height="39" as="alternateBounds" />
          </mxGeometry>
        </mxCell>
        <mxCell id="rALmjC8-9dlUVmQsLGrq-183" value="" style="shape=partialRectangle;html=1;whiteSpace=wrap;connectable=0;strokeColor=inherit;overflow=hidden;fillColor=none;top=0;left=0;bottom=0;right=0;pointerEvents=1;fontStyle=1" parent="rALmjC8-9dlUVmQsLGrq-181" vertex="1">
          <mxGeometry x="41" width="41" height="39" as="geometry">
            <mxRectangle width="41" height="39" as="alternateBounds" />
          </mxGeometry>
        </mxCell>
        <mxCell id="rALmjC8-9dlUVmQsLGrq-184" value="" style="shape=partialRectangle;html=1;whiteSpace=wrap;connectable=0;strokeColor=inherit;overflow=hidden;fillColor=none;top=0;left=0;bottom=0;right=0;pointerEvents=1;fontStyle=1" parent="rALmjC8-9dlUVmQsLGrq-181" vertex="1">
          <mxGeometry x="82" width="40" height="39" as="geometry">
            <mxRectangle width="40" height="39" as="alternateBounds" />
          </mxGeometry>
        </mxCell>
        <mxCell id="rALmjC8-9dlUVmQsLGrq-185" value="" style="shape=partialRectangle;html=1;whiteSpace=wrap;connectable=0;strokeColor=inherit;overflow=hidden;fillColor=none;top=0;left=0;bottom=0;right=0;pointerEvents=1;fontStyle=1" parent="rALmjC8-9dlUVmQsLGrq-181" vertex="1">
          <mxGeometry x="122" width="41" height="39" as="geometry">
            <mxRectangle width="41" height="39" as="alternateBounds" />
          </mxGeometry>
        </mxCell>
        <mxCell id="rALmjC8-9dlUVmQsLGrq-186" value="" style="shape=tableRow;horizontal=0;startSize=0;swimlaneHead=0;swimlaneBody=0;strokeColor=inherit;top=0;left=0;bottom=0;right=0;collapsible=0;dropTarget=0;fillColor=none;points=[[0,0.5],[1,0.5]];portConstraint=eastwest;fontStyle=1" parent="rALmjC8-9dlUVmQsLGrq-175" vertex="1">
          <mxGeometry y="78" width="163" height="39" as="geometry" />
        </mxCell>
        <mxCell id="rALmjC8-9dlUVmQsLGrq-187" value="" style="shape=partialRectangle;html=1;whiteSpace=wrap;connectable=0;strokeColor=inherit;overflow=hidden;fillColor=none;top=0;left=0;bottom=0;right=0;pointerEvents=1;fontStyle=1" parent="rALmjC8-9dlUVmQsLGrq-186" vertex="1">
          <mxGeometry width="41" height="39" as="geometry">
            <mxRectangle width="41" height="39" as="alternateBounds" />
          </mxGeometry>
        </mxCell>
        <mxCell id="rALmjC8-9dlUVmQsLGrq-188" value="" style="shape=partialRectangle;html=1;whiteSpace=wrap;connectable=0;strokeColor=inherit;overflow=hidden;fillColor=none;top=0;left=0;bottom=0;right=0;pointerEvents=1;fontStyle=1" parent="rALmjC8-9dlUVmQsLGrq-186" vertex="1">
          <mxGeometry x="41" width="41" height="39" as="geometry">
            <mxRectangle width="41" height="39" as="alternateBounds" />
          </mxGeometry>
        </mxCell>
        <mxCell id="rALmjC8-9dlUVmQsLGrq-189" value="" style="shape=partialRectangle;html=1;whiteSpace=wrap;connectable=0;strokeColor=inherit;overflow=hidden;fillColor=none;top=0;left=0;bottom=0;right=0;pointerEvents=1;fontStyle=1" parent="rALmjC8-9dlUVmQsLGrq-186" vertex="1">
          <mxGeometry x="82" width="40" height="39" as="geometry">
            <mxRectangle width="40" height="39" as="alternateBounds" />
          </mxGeometry>
        </mxCell>
        <mxCell id="rALmjC8-9dlUVmQsLGrq-190" value="" style="shape=partialRectangle;html=1;whiteSpace=wrap;connectable=0;strokeColor=inherit;overflow=hidden;fillColor=none;top=0;left=0;bottom=0;right=0;pointerEvents=1;fontStyle=1" parent="rALmjC8-9dlUVmQsLGrq-186" vertex="1">
          <mxGeometry x="122" width="41" height="39" as="geometry">
            <mxRectangle width="41" height="39" as="alternateBounds" />
          </mxGeometry>
        </mxCell>
        <mxCell id="rALmjC8-9dlUVmQsLGrq-191" value="" style="shape=tableRow;horizontal=0;startSize=0;swimlaneHead=0;swimlaneBody=0;strokeColor=inherit;top=0;left=0;bottom=0;right=0;collapsible=0;dropTarget=0;fillColor=none;points=[[0,0.5],[1,0.5]];portConstraint=eastwest;fontStyle=1" parent="rALmjC8-9dlUVmQsLGrq-175" vertex="1">
          <mxGeometry y="117" width="163" height="39" as="geometry" />
        </mxCell>
        <mxCell id="rALmjC8-9dlUVmQsLGrq-192" value="" style="shape=partialRectangle;html=1;whiteSpace=wrap;connectable=0;strokeColor=inherit;overflow=hidden;fillColor=none;top=0;left=0;bottom=0;right=0;pointerEvents=1;fontStyle=1" parent="rALmjC8-9dlUVmQsLGrq-191" vertex="1">
          <mxGeometry width="41" height="39" as="geometry">
            <mxRectangle width="41" height="39" as="alternateBounds" />
          </mxGeometry>
        </mxCell>
        <mxCell id="rALmjC8-9dlUVmQsLGrq-193" value="" style="shape=partialRectangle;html=1;whiteSpace=wrap;connectable=0;strokeColor=inherit;overflow=hidden;fillColor=none;top=0;left=0;bottom=0;right=0;pointerEvents=1;fontStyle=1" parent="rALmjC8-9dlUVmQsLGrq-191" vertex="1">
          <mxGeometry x="41" width="41" height="39" as="geometry">
            <mxRectangle width="41" height="39" as="alternateBounds" />
          </mxGeometry>
        </mxCell>
        <mxCell id="rALmjC8-9dlUVmQsLGrq-194" value="" style="shape=partialRectangle;html=1;whiteSpace=wrap;connectable=0;strokeColor=inherit;overflow=hidden;fillColor=none;top=0;left=0;bottom=0;right=0;pointerEvents=1;fontStyle=1" parent="rALmjC8-9dlUVmQsLGrq-191" vertex="1">
          <mxGeometry x="82" width="40" height="39" as="geometry">
            <mxRectangle width="40" height="39" as="alternateBounds" />
          </mxGeometry>
        </mxCell>
        <mxCell id="rALmjC8-9dlUVmQsLGrq-195" value="" style="shape=partialRectangle;html=1;whiteSpace=wrap;connectable=0;strokeColor=inherit;overflow=hidden;fillColor=none;top=0;left=0;bottom=0;right=0;pointerEvents=1;fontStyle=1" parent="rALmjC8-9dlUVmQsLGrq-191" vertex="1">
          <mxGeometry x="122" width="41" height="39" as="geometry">
            <mxRectangle width="41" height="39" as="alternateBounds" />
          </mxGeometry>
        </mxCell>
        <mxCell id="rALmjC8-9dlUVmQsLGrq-198" value="&lt;font style=&quot;font-size: 16px;&quot;&gt;&lt;b&gt;按照grid和block计算索引&lt;/b&gt;&lt;/font&gt;" style="text;html=1;align=center;verticalAlign=middle;resizable=0;points=[];autosize=1;strokeColor=none;fillColor=none;" parent="1" vertex="1">
          <mxGeometry x="639" y="527" width="202" height="31" as="geometry" />
        </mxCell>
        <mxCell id="rALmjC8-9dlUVmQsLGrq-199" value="&lt;font style=&quot;font-size: 16px;&quot;&gt;&lt;b&gt;按照二维数组的方式计算索引&lt;/b&gt;&lt;/font&gt;" style="text;html=1;align=center;verticalAlign=middle;resizable=0;points=[];autosize=1;strokeColor=none;fillColor=none;" parent="1" vertex="1">
          <mxGeometry x="1007" y="527" width="226" height="31" as="geometry" />
        </mxCell>
        <mxCell id="DWj6sTnwdAdnjh5VMTFQ-170" value="" style="group" parent="1" vertex="1" connectable="0">
          <mxGeometry x="606" y="778" width="735" height="304" as="geometry" />
        </mxCell>
        <mxCell id="DWj6sTnwdAdnjh5VMTFQ-114" value="" style="rounded=0;whiteSpace=wrap;html=1;strokeColor=none;" parent="DWj6sTnwdAdnjh5VMTFQ-170" vertex="1">
          <mxGeometry width="735" height="304" as="geometry" />
        </mxCell>
        <mxCell id="DWj6sTnwdAdnjh5VMTFQ-118" value="" style="rounded=0;whiteSpace=wrap;html=1;fillColor=#B9E0A5;" parent="DWj6sTnwdAdnjh5VMTFQ-170" vertex="1">
          <mxGeometry x="441" y="169" width="31" height="31" as="geometry" />
        </mxCell>
        <mxCell id="DWj6sTnwdAdnjh5VMTFQ-119" value="" style="rounded=0;whiteSpace=wrap;html=1;fillColor=#B9E0A5;" parent="DWj6sTnwdAdnjh5VMTFQ-170" vertex="1">
          <mxGeometry x="472" y="169" width="31" height="31" as="geometry" />
        </mxCell>
        <mxCell id="DWj6sTnwdAdnjh5VMTFQ-120" value="" style="rounded=0;whiteSpace=wrap;html=1;fillColor=#B9E0A5;" parent="DWj6sTnwdAdnjh5VMTFQ-170" vertex="1">
          <mxGeometry x="503" y="169" width="31" height="31" as="geometry" />
        </mxCell>
        <mxCell id="DWj6sTnwdAdnjh5VMTFQ-121" value="" style="rounded=0;whiteSpace=wrap;html=1;fillColor=#B9E0A5;" parent="DWj6sTnwdAdnjh5VMTFQ-170" vertex="1">
          <mxGeometry x="534" y="169" width="31" height="31" as="geometry" />
        </mxCell>
        <mxCell id="DWj6sTnwdAdnjh5VMTFQ-122" value="" style="rounded=0;whiteSpace=wrap;html=1;fillColor=#B9E0A5;" parent="DWj6sTnwdAdnjh5VMTFQ-170" vertex="1">
          <mxGeometry x="441" y="200" width="31" height="31" as="geometry" />
        </mxCell>
        <mxCell id="DWj6sTnwdAdnjh5VMTFQ-123" value="" style="rounded=0;whiteSpace=wrap;html=1;fillColor=#B9E0A5;" parent="DWj6sTnwdAdnjh5VMTFQ-170" vertex="1">
          <mxGeometry x="472" y="200" width="31" height="31" as="geometry" />
        </mxCell>
        <mxCell id="DWj6sTnwdAdnjh5VMTFQ-124" value="" style="rounded=0;whiteSpace=wrap;html=1;fillColor=#B9E0A5;" parent="DWj6sTnwdAdnjh5VMTFQ-170" vertex="1">
          <mxGeometry x="503" y="200" width="31" height="31" as="geometry" />
        </mxCell>
        <mxCell id="DWj6sTnwdAdnjh5VMTFQ-125" value="" style="rounded=0;whiteSpace=wrap;html=1;fillColor=#B9E0A5;" parent="DWj6sTnwdAdnjh5VMTFQ-170" vertex="1">
          <mxGeometry x="534" y="200" width="31" height="31" as="geometry" />
        </mxCell>
        <mxCell id="DWj6sTnwdAdnjh5VMTFQ-126" value="" style="rounded=0;whiteSpace=wrap;html=1;" parent="DWj6sTnwdAdnjh5VMTFQ-170" vertex="1">
          <mxGeometry x="441" y="231" width="31" height="31" as="geometry" />
        </mxCell>
        <mxCell id="DWj6sTnwdAdnjh5VMTFQ-127" value="" style="rounded=0;whiteSpace=wrap;html=1;" parent="DWj6sTnwdAdnjh5VMTFQ-170" vertex="1">
          <mxGeometry x="472" y="231" width="31" height="31" as="geometry" />
        </mxCell>
        <mxCell id="DWj6sTnwdAdnjh5VMTFQ-128" value="" style="rounded=0;whiteSpace=wrap;html=1;" parent="DWj6sTnwdAdnjh5VMTFQ-170" vertex="1">
          <mxGeometry x="503" y="231" width="31" height="31" as="geometry" />
        </mxCell>
        <mxCell id="DWj6sTnwdAdnjh5VMTFQ-129" value="" style="rounded=0;whiteSpace=wrap;html=1;" parent="DWj6sTnwdAdnjh5VMTFQ-170" vertex="1">
          <mxGeometry x="534" y="231" width="31" height="31" as="geometry" />
        </mxCell>
        <mxCell id="DWj6sTnwdAdnjh5VMTFQ-130" value="" style="rounded=0;whiteSpace=wrap;html=1;" parent="DWj6sTnwdAdnjh5VMTFQ-170" vertex="1">
          <mxGeometry x="441" y="262" width="31" height="31" as="geometry" />
        </mxCell>
        <mxCell id="DWj6sTnwdAdnjh5VMTFQ-131" value="" style="rounded=0;whiteSpace=wrap;html=1;" parent="DWj6sTnwdAdnjh5VMTFQ-170" vertex="1">
          <mxGeometry x="472" y="262" width="31" height="31" as="geometry" />
        </mxCell>
        <mxCell id="DWj6sTnwdAdnjh5VMTFQ-132" value="" style="rounded=0;whiteSpace=wrap;html=1;" parent="DWj6sTnwdAdnjh5VMTFQ-170" vertex="1">
          <mxGeometry x="503" y="262" width="31" height="31" as="geometry" />
        </mxCell>
        <mxCell id="DWj6sTnwdAdnjh5VMTFQ-133" value="" style="rounded=0;whiteSpace=wrap;html=1;" parent="DWj6sTnwdAdnjh5VMTFQ-170" vertex="1">
          <mxGeometry x="534" y="262" width="31" height="31" as="geometry" />
        </mxCell>
        <mxCell id="DWj6sTnwdAdnjh5VMTFQ-134" value="" style="rounded=0;whiteSpace=wrap;html=1;fillColor=#FFE599;" parent="DWj6sTnwdAdnjh5VMTFQ-170" vertex="1">
          <mxGeometry x="596" y="169" width="31" height="31" as="geometry" />
        </mxCell>
        <mxCell id="DWj6sTnwdAdnjh5VMTFQ-135" value="" style="rounded=0;whiteSpace=wrap;html=1;fillColor=#FFE599;" parent="DWj6sTnwdAdnjh5VMTFQ-170" vertex="1">
          <mxGeometry x="627" y="169" width="31" height="31" as="geometry" />
        </mxCell>
        <mxCell id="DWj6sTnwdAdnjh5VMTFQ-136" value="" style="rounded=0;whiteSpace=wrap;html=1;fillColor=#A9C4EB;" parent="DWj6sTnwdAdnjh5VMTFQ-170" vertex="1">
          <mxGeometry x="658" y="169" width="31" height="31" as="geometry" />
        </mxCell>
        <mxCell id="DWj6sTnwdAdnjh5VMTFQ-137" value="" style="rounded=0;whiteSpace=wrap;html=1;fillColor=#A9C4EB;" parent="DWj6sTnwdAdnjh5VMTFQ-170" vertex="1">
          <mxGeometry x="689" y="169" width="31" height="31" as="geometry" />
        </mxCell>
        <mxCell id="DWj6sTnwdAdnjh5VMTFQ-138" value="" style="rounded=0;whiteSpace=wrap;html=1;fillColor=#FFE599;" parent="DWj6sTnwdAdnjh5VMTFQ-170" vertex="1">
          <mxGeometry x="596" y="200" width="31" height="31" as="geometry" />
        </mxCell>
        <mxCell id="DWj6sTnwdAdnjh5VMTFQ-139" value="" style="rounded=0;whiteSpace=wrap;html=1;fillColor=#FFE599;" parent="DWj6sTnwdAdnjh5VMTFQ-170" vertex="1">
          <mxGeometry x="627" y="200" width="31" height="31" as="geometry" />
        </mxCell>
        <mxCell id="DWj6sTnwdAdnjh5VMTFQ-140" value="" style="rounded=0;whiteSpace=wrap;html=1;fillColor=#A9C4EB;" parent="DWj6sTnwdAdnjh5VMTFQ-170" vertex="1">
          <mxGeometry x="658" y="200" width="31" height="31" as="geometry" />
        </mxCell>
        <mxCell id="DWj6sTnwdAdnjh5VMTFQ-141" value="" style="rounded=0;whiteSpace=wrap;html=1;fillColor=#A9C4EB;" parent="DWj6sTnwdAdnjh5VMTFQ-170" vertex="1">
          <mxGeometry x="689" y="200" width="31" height="31" as="geometry" />
        </mxCell>
        <mxCell id="DWj6sTnwdAdnjh5VMTFQ-142" value="" style="rounded=0;whiteSpace=wrap;html=1;" parent="DWj6sTnwdAdnjh5VMTFQ-170" vertex="1">
          <mxGeometry x="596" y="231" width="31" height="31" as="geometry" />
        </mxCell>
        <mxCell id="DWj6sTnwdAdnjh5VMTFQ-143" value="" style="rounded=0;whiteSpace=wrap;html=1;" parent="DWj6sTnwdAdnjh5VMTFQ-170" vertex="1">
          <mxGeometry x="627" y="231" width="31" height="31" as="geometry" />
        </mxCell>
        <mxCell id="DWj6sTnwdAdnjh5VMTFQ-144" value="" style="rounded=0;whiteSpace=wrap;html=1;" parent="DWj6sTnwdAdnjh5VMTFQ-170" vertex="1">
          <mxGeometry x="658" y="231" width="31" height="31" as="geometry" />
        </mxCell>
        <mxCell id="DWj6sTnwdAdnjh5VMTFQ-145" value="" style="rounded=0;whiteSpace=wrap;html=1;" parent="DWj6sTnwdAdnjh5VMTFQ-170" vertex="1">
          <mxGeometry x="689" y="231" width="31" height="31" as="geometry" />
        </mxCell>
        <mxCell id="DWj6sTnwdAdnjh5VMTFQ-146" value="" style="rounded=0;whiteSpace=wrap;html=1;" parent="DWj6sTnwdAdnjh5VMTFQ-170" vertex="1">
          <mxGeometry x="596" y="262" width="31" height="31" as="geometry" />
        </mxCell>
        <mxCell id="DWj6sTnwdAdnjh5VMTFQ-147" value="" style="rounded=0;whiteSpace=wrap;html=1;" parent="DWj6sTnwdAdnjh5VMTFQ-170" vertex="1">
          <mxGeometry x="627" y="262" width="31" height="31" as="geometry" />
        </mxCell>
        <mxCell id="DWj6sTnwdAdnjh5VMTFQ-148" value="" style="rounded=0;whiteSpace=wrap;html=1;" parent="DWj6sTnwdAdnjh5VMTFQ-170" vertex="1">
          <mxGeometry x="658" y="262" width="31" height="31" as="geometry" />
        </mxCell>
        <mxCell id="DWj6sTnwdAdnjh5VMTFQ-149" value="" style="rounded=0;whiteSpace=wrap;html=1;" parent="DWj6sTnwdAdnjh5VMTFQ-170" vertex="1">
          <mxGeometry x="689" y="262" width="31" height="31" as="geometry" />
        </mxCell>
        <mxCell id="DWj6sTnwdAdnjh5VMTFQ-150" value="" style="rounded=0;whiteSpace=wrap;html=1;fillColor=#FFE599;" parent="DWj6sTnwdAdnjh5VMTFQ-170" vertex="1">
          <mxGeometry x="596" y="14" width="31" height="31" as="geometry" />
        </mxCell>
        <mxCell id="DWj6sTnwdAdnjh5VMTFQ-151" value="" style="rounded=0;whiteSpace=wrap;html=1;fillColor=#FFE599;" parent="DWj6sTnwdAdnjh5VMTFQ-170" vertex="1">
          <mxGeometry x="627" y="14" width="31" height="31" as="geometry" />
        </mxCell>
        <mxCell id="DWj6sTnwdAdnjh5VMTFQ-152" value="" style="rounded=0;whiteSpace=wrap;html=1;fillColor=#A9C4EB;" parent="DWj6sTnwdAdnjh5VMTFQ-170" vertex="1">
          <mxGeometry x="658" y="14" width="31" height="31" as="geometry" />
        </mxCell>
        <mxCell id="DWj6sTnwdAdnjh5VMTFQ-153" value="" style="rounded=0;whiteSpace=wrap;html=1;fillColor=#A9C4EB;" parent="DWj6sTnwdAdnjh5VMTFQ-170" vertex="1">
          <mxGeometry x="689" y="14" width="31" height="31" as="geometry" />
        </mxCell>
        <mxCell id="DWj6sTnwdAdnjh5VMTFQ-154" value="" style="rounded=0;whiteSpace=wrap;html=1;fillColor=#FFE599;" parent="DWj6sTnwdAdnjh5VMTFQ-170" vertex="1">
          <mxGeometry x="596" y="45" width="31" height="31" as="geometry" />
        </mxCell>
        <mxCell id="DWj6sTnwdAdnjh5VMTFQ-155" value="" style="rounded=0;whiteSpace=wrap;html=1;fillColor=#FFE599;" parent="DWj6sTnwdAdnjh5VMTFQ-170" vertex="1">
          <mxGeometry x="627" y="45" width="31" height="31" as="geometry" />
        </mxCell>
        <mxCell id="DWj6sTnwdAdnjh5VMTFQ-156" value="" style="rounded=0;whiteSpace=wrap;html=1;fillColor=#A9C4EB;" parent="DWj6sTnwdAdnjh5VMTFQ-170" vertex="1">
          <mxGeometry x="658" y="45" width="31" height="31" as="geometry" />
        </mxCell>
        <mxCell id="DWj6sTnwdAdnjh5VMTFQ-157" value="" style="rounded=0;whiteSpace=wrap;html=1;fillColor=#A9C4EB;" parent="DWj6sTnwdAdnjh5VMTFQ-170" vertex="1">
          <mxGeometry x="689" y="45" width="31" height="31" as="geometry" />
        </mxCell>
        <mxCell id="DWj6sTnwdAdnjh5VMTFQ-158" value="" style="rounded=0;whiteSpace=wrap;html=1;fillColor=#FFE599;" parent="DWj6sTnwdAdnjh5VMTFQ-170" vertex="1">
          <mxGeometry x="596" y="76" width="31" height="31" as="geometry" />
        </mxCell>
        <mxCell id="DWj6sTnwdAdnjh5VMTFQ-159" value="" style="rounded=0;whiteSpace=wrap;html=1;fillColor=#FFE599;" parent="DWj6sTnwdAdnjh5VMTFQ-170" vertex="1">
          <mxGeometry x="627" y="76" width="31" height="31" as="geometry" />
        </mxCell>
        <mxCell id="DWj6sTnwdAdnjh5VMTFQ-160" value="" style="rounded=0;whiteSpace=wrap;html=1;fillColor=#A9C4EB;" parent="DWj6sTnwdAdnjh5VMTFQ-170" vertex="1">
          <mxGeometry x="658" y="76" width="31" height="31" as="geometry" />
        </mxCell>
        <mxCell id="DWj6sTnwdAdnjh5VMTFQ-161" value="" style="rounded=0;whiteSpace=wrap;html=1;fillColor=#A9C4EB;" parent="DWj6sTnwdAdnjh5VMTFQ-170" vertex="1">
          <mxGeometry x="689" y="76" width="31" height="31" as="geometry" />
        </mxCell>
        <mxCell id="DWj6sTnwdAdnjh5VMTFQ-162" value="" style="rounded=0;whiteSpace=wrap;html=1;fillColor=#FFE599;" parent="DWj6sTnwdAdnjh5VMTFQ-170" vertex="1">
          <mxGeometry x="596" y="107" width="31" height="31" as="geometry" />
        </mxCell>
        <mxCell id="DWj6sTnwdAdnjh5VMTFQ-163" value="" style="rounded=0;whiteSpace=wrap;html=1;fillColor=#FFE599;" parent="DWj6sTnwdAdnjh5VMTFQ-170" vertex="1">
          <mxGeometry x="627" y="107" width="31" height="31" as="geometry" />
        </mxCell>
        <mxCell id="DWj6sTnwdAdnjh5VMTFQ-164" value="" style="rounded=0;whiteSpace=wrap;html=1;fillColor=#A9C4EB;" parent="DWj6sTnwdAdnjh5VMTFQ-170" vertex="1">
          <mxGeometry x="658" y="107" width="31" height="31" as="geometry" />
        </mxCell>
        <mxCell id="DWj6sTnwdAdnjh5VMTFQ-165" value="" style="rounded=0;whiteSpace=wrap;html=1;fillColor=#A9C4EB;" parent="DWj6sTnwdAdnjh5VMTFQ-170" vertex="1">
          <mxGeometry x="689" y="107" width="31" height="31" as="geometry" />
        </mxCell>
        <mxCell id="DWj6sTnwdAdnjh5VMTFQ-166" value="这一行被重复从&lt;br&gt;global memory中读取2次；&lt;br&gt;从shared_memory中读取4次" style="text;html=1;align=center;verticalAlign=middle;resizable=0;points=[];autosize=1;strokeColor=none;fillColor=none;" parent="DWj6sTnwdAdnjh5VMTFQ-170" vertex="1">
          <mxGeometry x="425" y="111" width="171" height="55" as="geometry" />
        </mxCell>
        <mxCell id="DWj6sTnwdAdnjh5VMTFQ-167" value="" style="edgeStyle=orthogonalEdgeStyle;orthogonalLoop=1;jettySize=auto;html=1;rounded=0;curved=1;exitX=0.076;exitY=0.993;exitDx=0;exitDy=0;exitPerimeter=0;" parent="DWj6sTnwdAdnjh5VMTFQ-170" edge="1">
          <mxGeometry width="80" relative="1" as="geometry">
            <mxPoint x="434.1079999999997" y="142.9979999999997" as="sourcePoint" />
            <mxPoint x="435" y="185.17999999999995" as="targetPoint" />
            <Array as="points">
              <mxPoint x="434" y="145.17999999999995" />
              <mxPoint x="406" y="145.17999999999995" />
              <mxPoint x="406" y="185.17999999999995" />
            </Array>
          </mxGeometry>
        </mxCell>
        <mxCell id="DWj6sTnwdAdnjh5VMTFQ-168" value="" style="shape=singleArrow;whiteSpace=wrap;html=1;arrowWidth=0.5999968155570652;arrowSize=0.44999847412109373;" parent="DWj6sTnwdAdnjh5VMTFQ-170" vertex="1">
          <mxGeometry x="348" y="129" width="39" height="46" as="geometry" />
        </mxCell>
        <mxCell id="DWj6sTnwdAdnjh5VMTFQ-64" value="" style="rounded=0;whiteSpace=wrap;html=1;fillColor=#B9E0A5;" parent="DWj6sTnwdAdnjh5VMTFQ-170" vertex="1">
          <mxGeometry x="43" y="169" width="31" height="31" as="geometry" />
        </mxCell>
        <mxCell id="DWj6sTnwdAdnjh5VMTFQ-65" value="" style="rounded=0;whiteSpace=wrap;html=1;fillColor=#B9E0A5;" parent="DWj6sTnwdAdnjh5VMTFQ-170" vertex="1">
          <mxGeometry x="74" y="169" width="31" height="31" as="geometry" />
        </mxCell>
        <mxCell id="DWj6sTnwdAdnjh5VMTFQ-66" value="" style="rounded=0;whiteSpace=wrap;html=1;fillColor=#B9E0A5;" parent="DWj6sTnwdAdnjh5VMTFQ-170" vertex="1">
          <mxGeometry x="105" y="169" width="31" height="31" as="geometry" />
        </mxCell>
        <mxCell id="DWj6sTnwdAdnjh5VMTFQ-67" value="" style="rounded=0;whiteSpace=wrap;html=1;fillColor=#B9E0A5;" parent="DWj6sTnwdAdnjh5VMTFQ-170" vertex="1">
          <mxGeometry x="136" y="169" width="31" height="31" as="geometry" />
        </mxCell>
        <mxCell id="DWj6sTnwdAdnjh5VMTFQ-68" value="" style="rounded=0;whiteSpace=wrap;html=1;" parent="DWj6sTnwdAdnjh5VMTFQ-170" vertex="1">
          <mxGeometry x="43" y="200" width="31" height="31" as="geometry" />
        </mxCell>
        <mxCell id="DWj6sTnwdAdnjh5VMTFQ-69" value="" style="rounded=0;whiteSpace=wrap;html=1;" parent="DWj6sTnwdAdnjh5VMTFQ-170" vertex="1">
          <mxGeometry x="74" y="200" width="31" height="31" as="geometry" />
        </mxCell>
        <mxCell id="DWj6sTnwdAdnjh5VMTFQ-70" value="" style="rounded=0;whiteSpace=wrap;html=1;" parent="DWj6sTnwdAdnjh5VMTFQ-170" vertex="1">
          <mxGeometry x="105" y="200" width="31" height="31" as="geometry" />
        </mxCell>
        <mxCell id="DWj6sTnwdAdnjh5VMTFQ-71" value="" style="rounded=0;whiteSpace=wrap;html=1;" parent="DWj6sTnwdAdnjh5VMTFQ-170" vertex="1">
          <mxGeometry x="136" y="200" width="31" height="31" as="geometry" />
        </mxCell>
        <mxCell id="DWj6sTnwdAdnjh5VMTFQ-72" value="" style="rounded=0;whiteSpace=wrap;html=1;" parent="DWj6sTnwdAdnjh5VMTFQ-170" vertex="1">
          <mxGeometry x="43" y="231" width="31" height="31" as="geometry" />
        </mxCell>
        <mxCell id="DWj6sTnwdAdnjh5VMTFQ-73" value="" style="rounded=0;whiteSpace=wrap;html=1;" parent="DWj6sTnwdAdnjh5VMTFQ-170" vertex="1">
          <mxGeometry x="74" y="231" width="31" height="31" as="geometry" />
        </mxCell>
        <mxCell id="DWj6sTnwdAdnjh5VMTFQ-74" value="" style="rounded=0;whiteSpace=wrap;html=1;" parent="DWj6sTnwdAdnjh5VMTFQ-170" vertex="1">
          <mxGeometry x="105" y="231" width="31" height="31" as="geometry" />
        </mxCell>
        <mxCell id="DWj6sTnwdAdnjh5VMTFQ-75" value="" style="rounded=0;whiteSpace=wrap;html=1;" parent="DWj6sTnwdAdnjh5VMTFQ-170" vertex="1">
          <mxGeometry x="136" y="231" width="31" height="31" as="geometry" />
        </mxCell>
        <mxCell id="DWj6sTnwdAdnjh5VMTFQ-76" value="" style="rounded=0;whiteSpace=wrap;html=1;" parent="DWj6sTnwdAdnjh5VMTFQ-170" vertex="1">
          <mxGeometry x="43" y="262" width="31" height="31" as="geometry" />
        </mxCell>
        <mxCell id="DWj6sTnwdAdnjh5VMTFQ-77" value="" style="rounded=0;whiteSpace=wrap;html=1;" parent="DWj6sTnwdAdnjh5VMTFQ-170" vertex="1">
          <mxGeometry x="74" y="262" width="31" height="31" as="geometry" />
        </mxCell>
        <mxCell id="DWj6sTnwdAdnjh5VMTFQ-78" value="" style="rounded=0;whiteSpace=wrap;html=1;" parent="DWj6sTnwdAdnjh5VMTFQ-170" vertex="1">
          <mxGeometry x="105" y="262" width="31" height="31" as="geometry" />
        </mxCell>
        <mxCell id="DWj6sTnwdAdnjh5VMTFQ-79" value="" style="rounded=0;whiteSpace=wrap;html=1;" parent="DWj6sTnwdAdnjh5VMTFQ-170" vertex="1">
          <mxGeometry x="136" y="262" width="31" height="31" as="geometry" />
        </mxCell>
        <mxCell id="DWj6sTnwdAdnjh5VMTFQ-80" value="" style="rounded=0;whiteSpace=wrap;html=1;fillColor=#FFE599;" parent="DWj6sTnwdAdnjh5VMTFQ-170" vertex="1">
          <mxGeometry x="198" y="169" width="31" height="31" as="geometry" />
        </mxCell>
        <mxCell id="DWj6sTnwdAdnjh5VMTFQ-81" value="" style="rounded=0;whiteSpace=wrap;html=1;fillColor=#A9C4EB;" parent="DWj6sTnwdAdnjh5VMTFQ-170" vertex="1">
          <mxGeometry x="229" y="169" width="31" height="31" as="geometry" />
        </mxCell>
        <mxCell id="DWj6sTnwdAdnjh5VMTFQ-82" value="" style="rounded=0;whiteSpace=wrap;html=1;fillColor=#F8CECC;" parent="DWj6sTnwdAdnjh5VMTFQ-170" vertex="1">
          <mxGeometry x="260" y="169" width="31" height="31" as="geometry" />
        </mxCell>
        <mxCell id="DWj6sTnwdAdnjh5VMTFQ-83" value="" style="rounded=0;whiteSpace=wrap;html=1;fillColor=#9999FF;" parent="DWj6sTnwdAdnjh5VMTFQ-170" vertex="1">
          <mxGeometry x="291" y="169" width="31" height="31" as="geometry" />
        </mxCell>
        <mxCell id="DWj6sTnwdAdnjh5VMTFQ-84" value="" style="rounded=0;whiteSpace=wrap;html=1;" parent="DWj6sTnwdAdnjh5VMTFQ-170" vertex="1">
          <mxGeometry x="198" y="200" width="31" height="31" as="geometry" />
        </mxCell>
        <mxCell id="DWj6sTnwdAdnjh5VMTFQ-85" value="" style="rounded=0;whiteSpace=wrap;html=1;" parent="DWj6sTnwdAdnjh5VMTFQ-170" vertex="1">
          <mxGeometry x="229" y="200" width="31" height="31" as="geometry" />
        </mxCell>
        <mxCell id="DWj6sTnwdAdnjh5VMTFQ-86" value="" style="rounded=0;whiteSpace=wrap;html=1;" parent="DWj6sTnwdAdnjh5VMTFQ-170" vertex="1">
          <mxGeometry x="260" y="200" width="31" height="31" as="geometry" />
        </mxCell>
        <mxCell id="DWj6sTnwdAdnjh5VMTFQ-87" value="" style="rounded=0;whiteSpace=wrap;html=1;" parent="DWj6sTnwdAdnjh5VMTFQ-170" vertex="1">
          <mxGeometry x="291" y="200" width="31" height="31" as="geometry" />
        </mxCell>
        <mxCell id="DWj6sTnwdAdnjh5VMTFQ-88" value="" style="rounded=0;whiteSpace=wrap;html=1;" parent="DWj6sTnwdAdnjh5VMTFQ-170" vertex="1">
          <mxGeometry x="198" y="231" width="31" height="31" as="geometry" />
        </mxCell>
        <mxCell id="DWj6sTnwdAdnjh5VMTFQ-89" value="" style="rounded=0;whiteSpace=wrap;html=1;" parent="DWj6sTnwdAdnjh5VMTFQ-170" vertex="1">
          <mxGeometry x="229" y="231" width="31" height="31" as="geometry" />
        </mxCell>
        <mxCell id="DWj6sTnwdAdnjh5VMTFQ-90" value="" style="rounded=0;whiteSpace=wrap;html=1;" parent="DWj6sTnwdAdnjh5VMTFQ-170" vertex="1">
          <mxGeometry x="260" y="231" width="31" height="31" as="geometry" />
        </mxCell>
        <mxCell id="DWj6sTnwdAdnjh5VMTFQ-91" value="" style="rounded=0;whiteSpace=wrap;html=1;" parent="DWj6sTnwdAdnjh5VMTFQ-170" vertex="1">
          <mxGeometry x="291" y="231" width="31" height="31" as="geometry" />
        </mxCell>
        <mxCell id="DWj6sTnwdAdnjh5VMTFQ-92" value="" style="rounded=0;whiteSpace=wrap;html=1;" parent="DWj6sTnwdAdnjh5VMTFQ-170" vertex="1">
          <mxGeometry x="198" y="262" width="31" height="31" as="geometry" />
        </mxCell>
        <mxCell id="DWj6sTnwdAdnjh5VMTFQ-93" value="" style="rounded=0;whiteSpace=wrap;html=1;" parent="DWj6sTnwdAdnjh5VMTFQ-170" vertex="1">
          <mxGeometry x="229" y="262" width="31" height="31" as="geometry" />
        </mxCell>
        <mxCell id="DWj6sTnwdAdnjh5VMTFQ-94" value="" style="rounded=0;whiteSpace=wrap;html=1;" parent="DWj6sTnwdAdnjh5VMTFQ-170" vertex="1">
          <mxGeometry x="260" y="262" width="31" height="31" as="geometry" />
        </mxCell>
        <mxCell id="DWj6sTnwdAdnjh5VMTFQ-95" value="" style="rounded=0;whiteSpace=wrap;html=1;" parent="DWj6sTnwdAdnjh5VMTFQ-170" vertex="1">
          <mxGeometry x="291" y="262" width="31" height="31" as="geometry" />
        </mxCell>
        <mxCell id="DWj6sTnwdAdnjh5VMTFQ-96" value="" style="rounded=0;whiteSpace=wrap;html=1;fillColor=#FFE599;" parent="DWj6sTnwdAdnjh5VMTFQ-170" vertex="1">
          <mxGeometry x="198" y="14" width="31" height="31" as="geometry" />
        </mxCell>
        <mxCell id="DWj6sTnwdAdnjh5VMTFQ-97" value="" style="rounded=0;whiteSpace=wrap;html=1;fillColor=#A9C4EB;" parent="DWj6sTnwdAdnjh5VMTFQ-170" vertex="1">
          <mxGeometry x="229" y="14" width="31" height="31" as="geometry" />
        </mxCell>
        <mxCell id="DWj6sTnwdAdnjh5VMTFQ-98" value="" style="rounded=0;whiteSpace=wrap;html=1;fillColor=#F8CECC;" parent="DWj6sTnwdAdnjh5VMTFQ-170" vertex="1">
          <mxGeometry x="260" y="14" width="31" height="31" as="geometry" />
        </mxCell>
        <mxCell id="DWj6sTnwdAdnjh5VMTFQ-99" value="" style="rounded=0;whiteSpace=wrap;html=1;fillColor=#9999FF;" parent="DWj6sTnwdAdnjh5VMTFQ-170" vertex="1">
          <mxGeometry x="291" y="14" width="31" height="31" as="geometry" />
        </mxCell>
        <mxCell id="DWj6sTnwdAdnjh5VMTFQ-100" value="" style="rounded=0;whiteSpace=wrap;html=1;fillColor=#FFE599;" parent="DWj6sTnwdAdnjh5VMTFQ-170" vertex="1">
          <mxGeometry x="198" y="45" width="31" height="31" as="geometry" />
        </mxCell>
        <mxCell id="DWj6sTnwdAdnjh5VMTFQ-101" value="" style="rounded=0;whiteSpace=wrap;html=1;fillColor=#A9C4EB;" parent="DWj6sTnwdAdnjh5VMTFQ-170" vertex="1">
          <mxGeometry x="229" y="45" width="31" height="31" as="geometry" />
        </mxCell>
        <mxCell id="DWj6sTnwdAdnjh5VMTFQ-102" value="" style="rounded=0;whiteSpace=wrap;html=1;fillColor=#F8CECC;" parent="DWj6sTnwdAdnjh5VMTFQ-170" vertex="1">
          <mxGeometry x="260" y="45" width="31" height="31" as="geometry" />
        </mxCell>
        <mxCell id="DWj6sTnwdAdnjh5VMTFQ-103" value="" style="rounded=0;whiteSpace=wrap;html=1;fillColor=#9999FF;" parent="DWj6sTnwdAdnjh5VMTFQ-170" vertex="1">
          <mxGeometry x="291" y="45" width="31" height="31" as="geometry" />
        </mxCell>
        <mxCell id="DWj6sTnwdAdnjh5VMTFQ-104" value="" style="rounded=0;whiteSpace=wrap;html=1;fillColor=#FFE599;" parent="DWj6sTnwdAdnjh5VMTFQ-170" vertex="1">
          <mxGeometry x="198" y="76" width="31" height="31" as="geometry" />
        </mxCell>
        <mxCell id="DWj6sTnwdAdnjh5VMTFQ-105" value="" style="rounded=0;whiteSpace=wrap;html=1;fillColor=#A9C4EB;" parent="DWj6sTnwdAdnjh5VMTFQ-170" vertex="1">
          <mxGeometry x="229" y="76" width="31" height="31" as="geometry" />
        </mxCell>
        <mxCell id="DWj6sTnwdAdnjh5VMTFQ-106" value="" style="rounded=0;whiteSpace=wrap;html=1;fillColor=#F8CECC;" parent="DWj6sTnwdAdnjh5VMTFQ-170" vertex="1">
          <mxGeometry x="260" y="76" width="31" height="31" as="geometry" />
        </mxCell>
        <mxCell id="DWj6sTnwdAdnjh5VMTFQ-107" value="" style="rounded=0;whiteSpace=wrap;html=1;fillColor=#9999FF;" parent="DWj6sTnwdAdnjh5VMTFQ-170" vertex="1">
          <mxGeometry x="291" y="76" width="31" height="31" as="geometry" />
        </mxCell>
        <mxCell id="DWj6sTnwdAdnjh5VMTFQ-108" value="" style="rounded=0;whiteSpace=wrap;html=1;fillColor=#FFE599;" parent="DWj6sTnwdAdnjh5VMTFQ-170" vertex="1">
          <mxGeometry x="198" y="107" width="31" height="31" as="geometry" />
        </mxCell>
        <mxCell id="DWj6sTnwdAdnjh5VMTFQ-109" value="" style="rounded=0;whiteSpace=wrap;html=1;fillColor=#A9C4EB;" parent="DWj6sTnwdAdnjh5VMTFQ-170" vertex="1">
          <mxGeometry x="229" y="107" width="31" height="31" as="geometry" />
        </mxCell>
        <mxCell id="DWj6sTnwdAdnjh5VMTFQ-110" value="" style="rounded=0;whiteSpace=wrap;html=1;fillColor=#F8CECC;" parent="DWj6sTnwdAdnjh5VMTFQ-170" vertex="1">
          <mxGeometry x="260" y="107" width="31" height="31" as="geometry" />
        </mxCell>
        <mxCell id="DWj6sTnwdAdnjh5VMTFQ-111" value="" style="rounded=0;whiteSpace=wrap;html=1;fillColor=#9999FF;" parent="DWj6sTnwdAdnjh5VMTFQ-170" vertex="1">
          <mxGeometry x="291" y="107" width="31" height="31" as="geometry" />
        </mxCell>
        <mxCell id="DWj6sTnwdAdnjh5VMTFQ-112" value="这一行被重复从&lt;br&gt;global memory中读取4次" style="text;html=1;align=center;verticalAlign=middle;resizable=0;points=[];autosize=1;strokeColor=none;fillColor=none;" parent="DWj6sTnwdAdnjh5VMTFQ-170" vertex="1">
          <mxGeometry x="31" y="120" width="151" height="41" as="geometry" />
        </mxCell>
        <mxCell id="DWj6sTnwdAdnjh5VMTFQ-113" value="" style="edgeStyle=orthogonalEdgeStyle;orthogonalLoop=1;jettySize=auto;html=1;rounded=0;curved=1;exitX=0.076;exitY=0.993;exitDx=0;exitDy=0;exitPerimeter=0;" parent="DWj6sTnwdAdnjh5VMTFQ-170" edge="1">
          <mxGeometry width="80" relative="1" as="geometry">
            <mxPoint x="36.10799999999972" y="142.9979999999997" as="sourcePoint" />
            <mxPoint x="37" y="185.17999999999995" as="targetPoint" />
            <Array as="points">
              <mxPoint x="36" y="145.17999999999995" />
              <mxPoint x="8" y="145.17999999999995" />
              <mxPoint x="8" y="185.17999999999995" />
            </Array>
          </mxGeometry>
        </mxCell>
      </root>
    </mxGraphModel>
  </diagram>
</mxfile>
